<?xml version="1.0" encoding="UTF-8" standalone="no" ?>
<!DOCTYPE svg PUBLIC "-//W3C//DTD SVG 1.1//EN" "http://www.w3.org/Graphics/SVG/1.1/DTD/svg11.dtd">
<svg xmlns="http://www.w3.org/2000/svg" xmlns:xlink="http://www.w3.org/1999/xlink" version="1.1" width="1080" height="350" viewBox="0 0 1080 350" xml:space="preserve">
<desc>Created with Fabric.js 5.2.4</desc>
<defs>
</defs>
<rect x="0" y="0" width="100%" height="100%" fill="transparent"></rect>
<g transform="matrix(1 0 0 1 540 540)" id="a44c8a70-7fd7-4e58-be03-bae024a89dec"  >
</g>
<g transform="matrix(1 0 0 1 540 540)" id="d398b93f-b87f-4098-bf0b-d15ac62468b6"  >
<rect style="stroke: none; stroke-width: 1; stroke-dasharray: none; stroke-linecap: butt; stroke-dashoffset: 0; stroke-linejoin: miter; stroke-miterlimit: 4; fill: rgb(255,255,255); fill-rule: nonzero; opacity: 1; visibility: hidden;" vector-effect="non-scaling-stroke"  x="-540" y="-540" rx="0" ry="0" width="1080" height="1080" />
</g>
<g transform="matrix(0.42 0 0 0.37 554.98 204.48)"  >
<g style="" vector-effect="non-scaling-stroke"   >
		<g transform="matrix(1 0 0 1 -634.25 -336.5)"  >
<path style="stroke: none; stroke-width: 1; stroke-dasharray: none; stroke-linecap: butt; stroke-dashoffset: 0; stroke-linejoin: miter; stroke-miterlimit: 4; fill: rgb(0,0,0); fill-rule: nonzero; opacity: 1;" vector-effect="non-scaling-stroke"  transform=" translate(-216.6, -70.85)" d="M 154.1 72.2 C 158.1 71.4 160.4 68.60000000000001 160.4 64.3 C 160.4 59.3 157.1 56.199999999999996 150.70000000000002 56.199999999999996 L 142.60000000000002 56.199999999999996 L 142.60000000000002 85 L 145.10000000000002 85 L 145.10000000000002 72.5 L 151.3 72.5 L 151.5 72.5 L 158.1 85 L 161 85 L 154.1 72.2 z M 150.6 58.4 C 156 58.4 157.9 61 157.9 64.4 C 157.9 68 156 70.4 151.3 70.4 L 145.10000000000002 70.4 L 145.10000000000002 58.400000000000006 L 150.6 58.400000000000006 z M 183.1 73.8 C 183.1 68.3 180.2 63.699999999999996 174.2 63.699999999999996 C 168.1 63.699999999999996 164.6 68.5 164.6 74.6 C 164.6 80.69999999999999 168.1 85.5 174.5 85.5 C 180 85.5 182.4 82.2 183.1 78.7 L 180.6 78.7 C 179.9 81.4 178.5 83.5 174.6 83.5 C 169.5 83.5 167.2 79.8 167.1 75 L 183.1 75 L 183.1 73.8 z M 174.2 65.6 C 178.6 65.6 180.5 68.89999999999999 180.7 73 L 167.2 73 C 167.6 68.8 169.8 65.6 174.2 65.6 z M 194.8 83.4 L 188.10000000000002 64 L 185.60000000000002 64 L 193.20000000000002 84.9 L 196.50000000000003 84.9 L 204.10000000000002 64 L 201.60000000000002 64 L 194.8 83.4 z M 224.6 73.8 C 224.6 68.3 221.7 63.699999999999996 215.7 63.699999999999996 C 209.6 63.699999999999996 206.1 68.5 206.1 74.6 C 206.1 80.69999999999999 209.6 85.5 216 85.5 C 221.5 85.5 223.9 82.2 224.6 78.7 L 222.1 78.7 C 221.4 81.4 220 83.5 216.1 83.5 C 211 83.5 208.7 79.8 208.6 75 L 224.6 75 L 224.6 73.8 z M 215.6 65.6 C 220 65.6 221.9 68.89999999999999 222.1 73 L 208.6 73 C 209 68.8 211.3 65.6 215.6 65.6 z M 239.1 63.6 C 235.4 63.6 232.79999999999998 65.8 231.5 68.3 L 231.5 64.1 L 229 64.1 L 229 85 L 231.5 85 L 231.5 71.3 C 232.2 68.7 234.8 65.7 238.4 65.7 C 241.5 65.7 243.3 67.3 243.3 71.9 L 243.3 84.9 L 245.8 84.9 L 245.8 71.5 C 245.8 65.8 243.3 63.6 239.1 63.6 z M 265.3 77.8 C 264.6 80.39999999999999 262 83.39999999999999 258.40000000000003 83.39999999999999 C 255.30000000000004 83.39999999999999 253.50000000000003 81.8 253.50000000000003 77.19999999999999 L 253.50000000000003 64.19999999999999 L 251 64.19999999999999 L 251 77.69999999999999 C 251 83.29999999999998 253.6 85.49999999999999 257.8 85.49999999999999 C 261.5 85.49999999999999 264.1 83.29999999999998 265.40000000000003 80.79999999999998 L 265.40000000000003 85 L 267.90000000000003 85 L 267.90000000000003 64.1 L 265.40000000000003 64.1 L 265.40000000000003 77.8 z M 290.6 73.8 C 290.6 68.3 287.70000000000005 63.699999999999996 281.70000000000005 63.699999999999996 C 275.6 63.699999999999996 272.1 68.5 272.1 74.6 C 272.1 80.69999999999999 275.6 85.5 282 85.5 C 287.5 85.5 289.9 82.2 290.6 78.7 L 288.1 78.7 C 287.40000000000003 81.4 286 83.5 282.1 83.5 C 277 83.5 274.70000000000005 79.8 274.6 75 L 290.6 75 L 290.6 73.8 z M 281.7 65.6 C 286.09999999999997 65.6 288 68.89999999999999 288.2 73 L 274.7 73 C 275.1 68.8 277.3 65.6 281.7 65.6 z" stroke-linecap="round" />
</g>
		<g transform="matrix(1 0 0 1 -528.3 333.8)"  >
<path style="stroke: none; stroke-width: 1; stroke-dasharray: none; stroke-linecap: butt; stroke-dashoffset: 0; stroke-linejoin: miter; stroke-miterlimit: 4; fill: rgb(0,0,0); fill-rule: nonzero; opacity: 1;" vector-effect="non-scaling-stroke"  transform=" translate(-322.55, -741.15)" d="M 166.4 748.9 L 156.70000000000002 723.9 L 153.3 723.9 L 153.3 752.6999999999999 L 155.8 752.6999999999999 L 155.8 727.5999999999999 L 165.60000000000002 752.8999999999999 L 167.3 752.8999999999999 L 177 727.5999999999999 L 177 752.6999999999999 L 179.5 752.6999999999999 L 179.5 723.9 L 176 723.9 L 166.4 748.9 z M 203.8 750.6 C 202.3 750.6 201.9 749.8000000000001 201.9 747.7 L 201.9 739.2 C 201.9 733.6 199.70000000000002 731.3000000000001 194.20000000000002 731.3000000000001 C 189.4 731.3000000000001 186.10000000000002 733.6 186.10000000000002 737.6 L 188.50000000000003 737.6 C 188.50000000000003 734.7 190.90000000000003 733.3000000000001 194.20000000000002 733.3000000000001 C 198.50000000000003 733.3000000000001 199.4 735.3000000000001 199.4 739.2 L 199.4 740.3000000000001 L 194.6 740.5000000000001 C 188.2 740.8000000000001 185.1 743.2000000000002 185.1 747.3000000000001 C 185.1 751.0000000000001 187.79999999999998 753.1 191.9 753.1 C 195.3 753.1 198 751.6 199.5 749 C 199.7 751.6 201 752.8 203.8 752.8 L 204.60000000000002 752.8 L 204.60000000000002 750.8 L 203.8 750.8 z M 192.3 751 C 189.3 751 187.60000000000002 749.6 187.60000000000002 747 C 187.60000000000002 743.1 191.40000000000003 742.5 195.00000000000003 742.3 L 199.50000000000003 742.0999999999999 L 199.50000000000003 744.5999999999999 C 199 748.4 196.1 751 192.3 751 z M 218 731.5 C 214.4 731.5 211.9 733.9 210.9 736.2 L 210.9 731.7 L 208.4 731.7 L 208.4 752.6 L 210.9 752.6 L 210.9 739 C 211.6 736.3 213.9 733.7 217.70000000000002 733.7 C 218.10000000000002 733.7 219.00000000000003 733.7 219.8 733.9000000000001 L 219.8 731.6000000000001 C 219.1 731.5 218.4 731.5 218 731.5 z M 241.5 752.7 L 231.6 740 L 240.29999999999998 731.8 L 237.2 731.8 L 226.2 742 L 226.2 722.1 L 223.7 722.1 L 223.7 752.7 L 226.2 752.7 L 226.2 744.9000000000001 L 229.79999999999998 741.5000000000001 L 238.6 752.7000000000002 L 241.5 752.7000000000002 z M 260.9 741.4 C 260.9 735.9 258 731.3 251.99999999999997 731.3 C 245.89999999999998 731.3 242.39999999999998 736.0999999999999 242.39999999999998 742.1999999999999 C 242.39999999999998 748.3 245.89999999999998 753.0999999999999 252.29999999999998 753.0999999999999 C 257.79999999999995 753.0999999999999 260.2 749.8 260.9 746.3 L 258.4 746.3 C 257.7 749 256.29999999999995 751.0999999999999 252.39999999999998 751.0999999999999 C 247.29999999999998 751.0999999999999 244.99999999999997 747.3999999999999 244.89999999999998 742.5999999999999 L 260.9 742.5999999999999 L 260.9 741.4 z M 251.9 733.3 C 256.3 733.3 258.2 736.5999999999999 258.4 740.6999999999999 L 244.89999999999998 740.6999999999999 C 245.3 736.4 247.6 733.3 251.9 733.3 z M 278.2 731.7 L 270.59999999999997 731.7 L 270.59999999999997 723.9000000000001 L 268.09999999999997 723.9000000000001 L 268.09999999999997 731.7 L 262.9 731.7 L 262.9 733.7 L 268.09999999999997 733.7 L 268.09999999999997 747.5 C 268.09999999999997 751.4 269.99999999999994 752.9 273.9 752.9 C 275.09999999999997 752.9 276.29999999999995 752.6999999999999 277.79999999999995 752.5 L 277.79999999999995 750.5 C 276.49999999999994 750.8 275.49999999999994 750.9 274.29999999999995 750.9 C 271.79999999999995 750.9 270.59999999999997 750.1 270.59999999999997 747.4 L 270.59999999999997 733.8 L 278.2 733.8 L 278.2 731.7 z M 317.4 752.7 L 304.4 736.8000000000001 L 316.79999999999995 724.0000000000001 L 313.59999999999997 724.0000000000001 L 298.79999999999995 739.5000000000001 L 298.79999999999995 724.0000000000001 L 296.29999999999995 724.0000000000001 L 296.29999999999995 752.8000000000001 L 298.79999999999995 752.8000000000001 L 298.79999999999995 742.8000000000001 L 302.79999999999995 738.7 L 314.4 752.9000000000001 L 317.4 752.9000000000001 z M 331.5 731.3 C 327.8 731.3 325.2 733.5 323.9 736 L 323.9 731.8 L 321.4 731.8 L 321.4 752.6999999999999 L 323.9 752.6999999999999 L 323.9 738.9999999999999 C 324.59999999999997 736.3999999999999 327.2 733.3999999999999 330.79999999999995 733.3999999999999 C 333.9 733.3999999999999 335.69999999999993 734.9999999999999 335.69999999999993 739.5999999999999 L 335.69999999999993 752.5999999999999 L 338.19999999999993 752.5999999999999 L 338.19999999999993 739.0999999999999 C 338.2 733.5 335.6 731.3 331.5 731.3 z M 352.1 753.1 C 358.1 753.1 361.90000000000003 748.5 361.90000000000003 742.2 C 361.90000000000003 735.9000000000001 358.3 731.3000000000001 352.1 731.3000000000001 C 345.90000000000003 731.3000000000001 342.3 735.9000000000001 342.3 742.2 C 342.3 748.5 345.9 753.1 352.1 753.1 z M 352.1 751.1 C 347.20000000000005 751.1 344.8 747.3000000000001 344.8 742.2 C 344.8 737.1 347.2 733.3000000000001 352.1 733.3000000000001 C 357 733.3000000000001 359.3 737.1 359.3 742.2 C 359.3 747.3 357 751.1 352.1 751.1 z M 385.4 750.8 L 380.09999999999997 731.6999999999999 L 377 731.6999999999999 L 371.7 750.8 L 366.4 731.6999999999999 L 363.9 731.6999999999999 L 369.9 752.5999999999999 L 373.2 752.5999999999999 L 378.5 733.6999999999999 L 383.8 752.5999999999999 L 387.1 752.5999999999999 L 393.1 731.6999999999999 L 390.6 731.6999999999999 L 385.4 750.8 z M 399.9 752.7 L 399.9 722.1 L 397.4 722.1 L 397.4 752.7 L 399.9 752.7 z M 423 741.4 C 423 735.9 420.1 731.3 414.1 731.3 C 408 731.3 404.5 736.0999999999999 404.5 742.1999999999999 C 404.5 748.3 408 753.0999999999999 414.4 753.0999999999999 C 419.9 753.0999999999999 422.29999999999995 749.8 423 746.3 L 420.5 746.3 C 419.8 749 418.4 751.0999999999999 414.5 751.0999999999999 C 409.4 751.0999999999999 407.1 747.3999999999999 407 742.5999999999999 L 423 742.5999999999999 L 423 741.4 z M 414 733.3 C 418.4 733.3 420.3 736.5999999999999 420.5 740.6999999999999 L 407 740.6999999999999 C 407.4 736.4 409.7 733.3 414 733.3 z M 442.7 736.1 C 441.3 733.2 438.8 731.3000000000001 435.2 731.3000000000001 C 429.3 731.3000000000001 426.09999999999997 736.1 426.09999999999997 742.2 C 426.09999999999997 748.3000000000001 429.4 753.1 435.2 753.1 C 438.7 753.1 441.3 751 442.7 747.9 L 442.7 752.6 L 445.2 752.6 L 445.2 722 L 442.7 722 L 442.7 736.1 z M 435.7 751.1 C 431 751.1 428.59999999999997 747.1 428.59999999999997 742.2 C 428.59999999999997 737.3000000000001 430.9 733.3000000000001 435.7 733.3000000000001 C 440.4 733.3000000000001 442.7 737.3000000000001 442.7 742.2 C 442.7 746.9 440.1 751.1 435.7 751.1 z M 466.5 736.2 C 465.2 733.3000000000001 462.7 731.3000000000001 459 731.3000000000001 C 453.4 731.3000000000001 449.9 736.1 449.9 741.9000000000001 C 449.9 747.7 453.2 752.1000000000001 459 752.1000000000001 C 462.5 752.1000000000001 465.2 750.1000000000001 466.5 747.2000000000002 L 466.5 749.7000000000002 C 466.5 755.7000000000002 464.3 758.4000000000002 459.1 758.4000000000002 C 454.6 758.4000000000002 452.90000000000003 756.3000000000002 452.20000000000005 754.3000000000002 L 449.80000000000007 754.3000000000002 C 450.4000000000001 757.0000000000002 452.70000000000005 760.3000000000002 459.1000000000001 760.3000000000002 C 465.80000000000007 760.3000000000002 468.9000000000001 756.6000000000001 468.9000000000001 749.5000000000002 L 468.9000000000001 731.7000000000003 L 466.4000000000001 731.7000000000003 L 466.4000000000001 736.2 z M 459.4 750.1 C 454.79999999999995 750.1 452.4 746.5 452.4 741.9 C 452.4 737.3 454.9 733.3 459.4 733.3 C 464.09999999999997 733.3 466.5 737.1999999999999 466.5 741.9 C 466.5 746.4 463.8 750.1 459.4 750.1 z M 491.8 741.4 C 491.8 735.9 488.90000000000003 731.3 482.90000000000003 731.3 C 476.8 731.3 473.3 736.0999999999999 473.3 742.1999999999999 C 473.3 748.3 476.8 753.0999999999999 483.2 753.0999999999999 C 488.7 753.0999999999999 491.09999999999997 749.8 491.8 746.3 L 489.3 746.3 C 488.6 749 487.2 751.0999999999999 483.3 751.0999999999999 C 478.2 751.0999999999999 475.90000000000003 747.3999999999999 475.8 742.5999999999999 L 491.8 742.5999999999999 L 491.8 741.4 z M 482.8 733.3 C 487.2 733.3 489.1 736.5999999999999 489.3 740.6999999999999 L 475.8 740.6999999999999 C 476.2 736.4 478.5 733.3 482.8 733.3 z" stroke-linecap="round" />
</g>
		<g transform="matrix(1 0 0 1 79.25 333.8)"  >
<path style="stroke: none; stroke-width: 1; stroke-dasharray: none; stroke-linecap: butt; stroke-dashoffset: 0; stroke-linejoin: miter; stroke-miterlimit: 4; fill: rgb(0,0,0); fill-rule: nonzero; opacity: 1;" vector-effect="non-scaling-stroke"  transform=" translate(-930.1, -741.15)" d="M 757.8 723.9 L 749.0999999999999 723.9 L 749.0999999999999 752.6999999999999 L 757.8 752.6999999999999 C 767.1999999999999 752.6999999999999 771.8 746.5999999999999 771.8 738.1999999999999 C 771.9 730 767.2 723.9 757.8 723.9 z M 751.7 750.5 L 751.7 726.1 L 757.8000000000001 726.1 C 765.7 726.1 769.2 731 769.2 738.2 C 769.2 745.6 765.7 750.5 757.8000000000001 750.5 L 751.7 750.5 z M 793.8 741.4 C 793.8 735.9 790.9 731.3 784.9 731.3 C 778.8 731.3 775.3 736.0999999999999 775.3 742.1999999999999 C 775.3 748.3 778.8 753.0999999999999 785.1999999999999 753.0999999999999 C 790.6999999999999 753.0999999999999 793.0999999999999 749.8 793.8 746.3 L 791.3 746.3 C 790.5999999999999 749 789.1999999999999 751.0999999999999 785.3 751.0999999999999 C 780.1999999999999 751.0999999999999 777.9 747.3999999999999 777.8 742.5999999999999 L 793.8 742.5999999999999 L 793.8 741.4 z M 784.8 733.3 C 789.1999999999999 733.3 791.0999999999999 736.5999999999999 791.3 740.6999999999999 L 777.8 740.6999999999999 C 778.2 736.4 780.5 733.3 784.8 733.3 z M 821.5 731.3 C 817.9 731.3 815.1 733.9 814 736.5 C 813.3 732.8 811.2 731.3 807.9 731.3 C 804.6 731.3 802 733.5 800.6999999999999 736 L 800.6999999999999 731.8 L 798.1999999999999 731.8 L 798.1999999999999 752.6999999999999 L 800.6999999999999 752.6999999999999 L 800.6999999999999 738.9999999999999 C 801.4 736.3999999999999 803.9 733.3999999999999 807.1999999999999 733.3999999999999 C 810.3 733.3999999999999 811.8 735.3999999999999 811.8 740.1999999999998 L 811.8 752.6999999999998 L 814.3 752.6999999999998 L 814.3 739.8999999999999 L 814.3 739 C 815 736.4 817.5 733.4 820.8 733.4 C 823.9 733.4 825.3 735.4 825.3 740.1999999999999 L 825.3 752.6999999999999 L 827.8 752.6999999999999 L 827.8 739.9 C 827.9 733.7 825.6 731.3 821.5 731.3 z M 851 750.6 C 849.5 750.6 849.1 749.8000000000001 849.1 747.7 L 849.1 739.2 C 849.1 733.6 846.9 731.3000000000001 841.4 731.3000000000001 C 836.6 731.3000000000001 833.3 733.6 833.3 737.6 L 835.6999999999999 737.6 C 835.6999999999999 734.7 838.0999999999999 733.3000000000001 841.4 733.3000000000001 C 845.6999999999999 733.3000000000001 846.6 735.3000000000001 846.6 739.2 L 846.6 740.3000000000001 L 841.8000000000001 740.5000000000001 C 835.4000000000001 740.8000000000001 832.3000000000001 743.2000000000002 832.3000000000001 747.3000000000001 C 832.3000000000001 751.0000000000001 835.0000000000001 753.1 839.1 753.1 C 842.5 753.1 845.2 751.6 846.7 749 C 846.9000000000001 751.6 848.2 752.8 851 752.8 L 851.8 752.8 L 851.8 750.8 L 851 750.8 z M 839.5 751 C 836.5 751 834.8 749.6 834.8 747 C 834.8 743.1 838.5999999999999 742.5 842.1999999999999 742.3 L 846.6999999999999 742.0999999999999 L 846.6999999999999 744.5999999999999 C 846.2 748.4 843.3 751 839.5 751 z M 865.8 731.3 C 862.0999999999999 731.3 859.5 733.5 858.1999999999999 736 L 858.1999999999999 731.8 L 855.6999999999999 731.8 L 855.6999999999999 752.6999999999999 L 858.1999999999999 752.6999999999999 L 858.1999999999999 738.9999999999999 C 858.9 736.3999999999999 861.4999999999999 733.3999999999999 865.0999999999999 733.3999999999999 C 868.1999999999999 733.3999999999999 870.0999999999999 734.9999999999999 870.0999999999999 739.5999999999999 L 870.0999999999999 752.5999999999999 L 872.5999999999999 752.5999999999999 L 872.5999999999999 739.0999999999999 C 872.5 733.5 869.9 731.3 865.8 731.3 z M 893.1 736.1 C 891.7 733.2 889.2 731.3000000000001 885.6 731.3000000000001 C 879.7 731.3000000000001 876.5 736.1 876.5 742.2 C 876.5 748.3000000000001 879.8 753.1 885.6 753.1 C 889.1 753.1 891.7 751 893.1 747.9 L 893.1 752.6 L 895.6 752.6 L 895.6 722 L 893.1 722 L 893.1 736.1 z M 886.1 751.1 C 881.4 751.1 879 747.1 879 742.2 C 879 737.3000000000001 881.3 733.3000000000001 886.1 733.3000000000001 C 890.8000000000001 733.3000000000001 893.1 737.3000000000001 893.1 742.2 C 893.1 746.9 890.5 751.1 886.1 751.1 z M 936.7 752.7 L 923.7 736.8000000000001 L 936.1 724.0000000000001 L 932.9 724.0000000000001 L 918.1 739.5000000000001 L 918.1 724.0000000000001 L 915.6 724.0000000000001 L 915.6 752.8000000000001 L 918.1 752.8000000000001 L 918.1 742.8000000000001 L 922.1 738.7 L 933.7 752.9000000000001 L 936.7 752.9000000000001 z M 950.8 731.3 C 947.0999999999999 731.3 944.5 733.5 943.1999999999999 736 L 943.1999999999999 731.8 L 940.6999999999999 731.8 L 940.6999999999999 752.6999999999999 L 943.1999999999999 752.6999999999999 L 943.1999999999999 738.9999999999999 C 943.9 736.3999999999999 946.4999999999999 733.3999999999999 950.0999999999999 733.3999999999999 C 953.1999999999999 733.3999999999999 954.9999999999999 734.9999999999999 954.9999999999999 739.5999999999999 L 954.9999999999999 752.5999999999999 L 957.4999999999999 752.5999999999999 L 957.4999999999999 739.0999999999999 C 957.5 733.5 954.9 731.3 950.8 731.3 z M 971.3 753.1 C 977.3 753.1 981.0999999999999 748.5 981.0999999999999 742.2 C 981.0999999999999 735.9000000000001 977.4999999999999 731.3000000000001 971.3 731.3000000000001 C 965.1 731.3000000000001 961.5 735.9000000000001 961.5 742.2 C 961.5 748.5 965.2 753.1 971.3 753.1 z M 971.3 751.1 C 966.4 751.1 964 747.3000000000001 964 742.2 C 964 737.1 966.4 733.3000000000001 971.3 733.3000000000001 C 976.1999999999999 733.3000000000001 978.5 737.1 978.5 742.2 C 978.6 747.3 976.2 751.1 971.3 751.1 z M 1004.7 750.8 L 999.4000000000001 731.6999999999999 L 996.3000000000001 731.6999999999999 L 991.0000000000001 750.8 L 985.7000000000002 731.6999999999999 L 983.2000000000002 731.6999999999999 L 989.2000000000002 752.5999999999999 L 992.5000000000001 752.5999999999999 L 997.8000000000001 733.6999999999999 L 1003.1 752.5999999999999 L 1006.4 752.5999999999999 L 1012.4 731.6999999999999 L 1009.9 731.6999999999999 L 1004.7 750.8 z M 1019.2 752.7 L 1019.2 722.1 L 1016.7 722.1 L 1016.7 752.7 L 1019.2 752.7 z M 1042.2 741.4 C 1042.2 735.9 1039.3 731.3 1033.3 731.3 C 1027.2 731.3 1023.6999999999999 736.0999999999999 1023.6999999999999 742.1999999999999 C 1023.6999999999999 748.3 1027.1999999999998 753.0999999999999 1033.6 753.0999999999999 C 1039.1 753.0999999999999 1041.5 749.8 1042.1999999999998 746.3 L 1039.7999999999997 746.3 C 1039.0999999999997 749 1037.6999999999998 751.0999999999999 1033.7999999999997 751.0999999999999 C 1028.6999999999998 751.0999999999999 1026.3999999999996 747.3999999999999 1026.2999999999997 742.5999999999999 L 1042.2999999999997 742.5999999999999 L 1042.2999999999997 741.4 z M 1033.3 733.3 C 1037.7 733.3 1039.6 736.5999999999999 1039.8 740.6999999999999 L 1026.3 740.6999999999999 C 1026.7 736.4 1029 733.3 1033.3 733.3 z M 1062 736.1 C 1060.6 733.2 1058.1 731.3000000000001 1054.5 731.3000000000001 C 1048.6 731.3000000000001 1045.4 736.1 1045.4 742.2 C 1045.4 748.3000000000001 1048.7 753.1 1054.5 753.1 C 1058 753.1 1060.6 751 1062 747.9 L 1062 752.6 L 1064.5 752.6 L 1064.5 722 L 1062 722 L 1062 736.1 z M 1055 751.1 C 1050.3 751.1 1047.9 747.1 1047.9 742.2 C 1047.9 737.3000000000001 1050.2 733.3000000000001 1055 733.3000000000001 C 1059.8 733.3000000000001 1062.1 737.3000000000001 1062.1 742.2 C 1062 746.9 1059.4 751.1 1055 751.1 z M 1085.8 736.2 C 1084.5 733.3000000000001 1082 731.3000000000001 1078.3 731.3000000000001 C 1072.7 731.3000000000001 1069.2 736.1 1069.2 741.9000000000001 C 1069.2 747.7 1072.5 752.1000000000001 1078.3 752.1000000000001 C 1081.8 752.1000000000001 1084.5 750.1000000000001 1085.8 747.2000000000002 L 1085.8 749.7000000000002 C 1085.8 755.7000000000002 1083.6 758.4000000000002 1078.3999999999999 758.4000000000002 C 1073.8999999999999 758.4000000000002 1072.1999999999998 756.3000000000002 1071.4999999999998 754.3000000000002 L 1069.0999999999997 754.3000000000002 C 1069.7999999999997 757.0000000000002 1071.9999999999998 760.3000000000002 1078.3999999999996 760.3000000000002 C 1085.0999999999997 760.3000000000002 1088.1999999999996 756.6000000000001 1088.1999999999996 749.5000000000002 L 1088.1999999999996 731.7000000000003 L 1085.6999999999996 731.7000000000003 L 1085.6999999999996 736.2 z M 1078.7 750.1 C 1074.1000000000001 750.1 1071.7 746.5 1071.7 741.9 C 1071.7 737.3 1074.1000000000001 733.3 1078.7 733.3 C 1083.4 733.3 1085.8 737.1999999999999 1085.8 741.9 C 1085.8 746.4 1083.1 750.1 1078.7 750.1 z M 1111.1 741.4 C 1111.1 735.9 1108.1999999999998 731.3 1102.1999999999998 731.3 C 1096.1 731.3 1092.6 736.0999999999999 1092.6 742.1999999999999 C 1092.6 748.3 1096.1 753.0999999999999 1102.5 753.0999999999999 C 1108 753.0999999999999 1110.4 749.8 1111.1 746.3 L 1108.6 746.3 C 1107.8999999999999 749 1106.5 751.0999999999999 1102.6 751.0999999999999 C 1097.5 751.0999999999999 1095.1999999999998 747.3999999999999 1095.1 742.5999999999999 L 1111.1 742.5999999999999 L 1111.1 741.4 z M 1102.1 733.3 C 1106.5 733.3 1108.3999999999999 736.5999999999999 1108.6 740.6999999999999 L 1095.1 740.6999999999999 C 1095.5 736.4 1097.8 733.3 1102.1 733.3 z" stroke-linecap="round" />
</g>
		<g transform="matrix(1 0 0 1 -27.7 -337.4)"  >
<path style="stroke: none; stroke-width: 1; stroke-dasharray: none; stroke-linecap: butt; stroke-dashoffset: 0; stroke-linejoin: miter; stroke-miterlimit: 4; fill: rgb(0,0,0); fill-rule: nonzero; opacity: 1;" vector-effect="non-scaling-stroke"  transform=" translate(-823.15, -69.95)" d="M 772.6 56.2 L 755 56.2 L 755 85 L 757.5 85 L 757.5 71.9 L 770.1 71.9 L 770.1 69.7 L 757.5 69.7 L 757.5 58.4 L 772.5 58.4 L 772.5 56.2 z M 777.3 60.5 L 779.8 60.5 L 779.8 54.4 L 777.3 54.4 L 777.3 60.5 z M 779.7 85 L 779.7 64.1 L 777.2 64.1 L 777.2 85 L 779.7 85 z M 795.6 63.6 C 791.9 63.6 789.3000000000001 65.8 788 68.3 L 788 64.1 L 785.5 64.1 L 785.5 85 L 788 85 L 788 71.3 C 788.7 68.7 791.3 65.7 794.9 65.7 C 798 65.7 799.9 67.3 799.9 71.9 L 799.9 84.9 L 802.4 84.9 L 802.4 71.5 C 802.3 65.8 799.7 63.6 795.6 63.6 z M 825.5 83 C 824 83 823.6 82.2 823.6 80.1 L 823.6 71.6 C 823.6 66 821.4 63.699999999999996 815.9 63.699999999999996 C 811.1 63.699999999999996 807.8 66 807.8 70 L 810.1999999999999 70 C 810.1999999999999 67.1 812.5999999999999 65.7 815.9 65.7 C 820.1999999999999 65.7 821.1 67.7 821.1 71.60000000000001 L 821.1 72.7 L 816.3000000000001 72.9 C 809.9000000000001 73.2 806.8000000000001 75.60000000000001 806.8000000000001 79.7 C 806.8000000000001 83.4 809.5000000000001 85.5 813.6 85.5 C 817 85.5 819.7 84 821.2 81.4 C 821.4000000000001 84 822.7 85.2 825.5 85.2 L 826.3 85.2 L 826.3 83.2 L 825.5 83.2 z M 813.9 83.4 C 810.9 83.4 809.1999999999999 82 809.1999999999999 79.4 C 809.1999999999999 75.5 812.9999999999999 74.9 816.5999999999999 74.7 L 821.0999999999999 74.5 L 821.0999999999999 77 C 820.7 80.7 817.7 83.4 813.9 83.4 z M 840.2 63.6 C 836.5 63.6 833.9000000000001 65.8 832.6 68.3 L 832.6 64.1 L 830.1 64.1 L 830.1 85 L 832.6 85 L 832.6 71.3 C 833.3000000000001 68.7 835.9 65.7 839.5 65.7 C 842.6 65.7 844.5 67.3 844.5 71.9 L 844.5 84.9 L 847 84.9 L 847 71.5 C 846.9 65.8 844.3 63.6 840.2 63.6 z M 860.9 85.4 C 866.8 85.4 869.3 81.4 869.8 77.4 L 867.4 77.4 C 866.9 80.80000000000001 864.9 83.4 860.8 83.4 C 856 83.4 853.5 79.30000000000001 853.5 74.5 C 853.5 69.6 855.8 65.6 860.8 65.6 C 864.8 65.6 866.5999999999999 68 867.0999999999999 71 L 869.4999999999999 71 C 869.0999999999999 67.1 866.4999999999999 63.6 860.9999999999999 63.6 C 854.5999999999999 63.6 851.0999999999999 68.4 851.0999999999999 74.5 C 851.0999999999999 80.6 854.4 85.4 860.9 85.4 z M 891.3 73.8 C 891.3 68.3 888.4 63.699999999999996 882.4 63.699999999999996 C 876.3 63.699999999999996 872.8 68.5 872.8 74.6 C 872.8 80.69999999999999 876.3 85.5 882.6999999999999 85.5 C 888.1999999999999 85.5 890.5999999999999 82.2 891.3 78.7 L 888.8 78.7 C 888.0999999999999 81.4 886.6999999999999 83.5 882.8 83.5 C 877.6999999999999 83.5 875.4 79.8 875.3 75 L 891.3 75 L 891.3 73.8 z M 882.3 65.6 C 886.6999999999999 65.6 888.5999999999999 68.89999999999999 888.8 73 L 875.3 73 C 875.7 68.8 878 65.6 882.3 65.6 z" stroke-linecap="round" />
</g>
		<g transform="matrix(1 0 0 1 563.35 -334)"  >
<path style="stroke: none; stroke-width: 1; stroke-dasharray: none; stroke-linecap: butt; stroke-dashoffset: 0; stroke-linejoin: miter; stroke-miterlimit: 4; fill: rgb(0,0,0); fill-rule: nonzero; opacity: 1;" vector-effect="non-scaling-stroke"  transform=" translate(-1414.2, -73.35)" d="M 1308.2 85.4 C 1314.6000000000001 85.4 1318.2 82.30000000000001 1318.2 77.30000000000001 C 1318.2 72.80000000000001 1315.5 70.70000000000002 1308.7 69.00000000000001 C 1302.6000000000001 67.50000000000001 1300.7 66.10000000000001 1300.7 63.100000000000016 C 1300.7 60.000000000000014 1303.3 58.000000000000014 1307.6000000000001 58.000000000000014 C 1312.3000000000002 58.000000000000014 1314.8000000000002 60.40000000000001 1314.9 64.20000000000002 L 1317.4 64.20000000000002 C 1317.4 59.100000000000016 1313.6000000000001 55.80000000000002 1307.8000000000002 55.80000000000002 C 1301.9 55.80000000000002 1298.3000000000002 58.70000000000002 1298.3000000000002 63.30000000000002 C 1298.3000000000002 67.30000000000001 1301.0000000000002 69.50000000000001 1307.7000000000003 71.10000000000002 C 1313.8000000000002 72.50000000000003 1315.7000000000003 74.00000000000003 1315.7000000000003 77.40000000000002 C 1315.7000000000003 81.00000000000001 1313.0000000000002 83.20000000000002 1308.3000000000002 83.20000000000002 C 1303.1000000000001 83.20000000000002 1299.8000000000002 80.30000000000001 1299.7000000000003 75.80000000000001 L 1297.2000000000003 75.80000000000001 C 1297.1 81.7 1301.4 85.4 1308.2 85.4 z M 1337.2 77.8 C 1336.5 80.39999999999999 1333.9 83.39999999999999 1330.3 83.39999999999999 C 1327.2 83.39999999999999 1325.3999999999999 81.8 1325.3999999999999 77.19999999999999 L 1325.3999999999999 64.19999999999999 L 1322.8999999999999 64.19999999999999 L 1322.8999999999999 77.69999999999999 C 1322.8999999999999 83.29999999999998 1325.4999999999998 85.49999999999999 1329.6999999999998 85.49999999999999 C 1333.3999999999999 85.49999999999999 1335.9999999999998 83.29999999999998 1337.2999999999997 80.79999999999998 L 1337.2999999999997 85 L 1339.7999999999997 85 L 1339.7999999999997 64.1 L 1337.2999999999997 64.1 L 1337.2999999999997 77.8 z M 1355.3 63.6 C 1351.8 63.6 1349.2 65.7 1347.8 68.8 L 1347.8 64.1 L 1345.3 64.1 L 1345.3 92.3 L 1347.8 92.3 L 1347.8 80.6 C 1349.2 83.5 1351.7 85.39999999999999 1355.3 85.39999999999999 C 1361.2 85.39999999999999 1364.5 80.6 1364.5 74.49999999999999 C 1364.5 68.39999999999998 1361.2 63.6 1355.3 63.6 z M 1354.9 83.4 C 1350.1000000000001 83.4 1347.8000000000002 79.4 1347.8000000000002 74.5 C 1347.8000000000002 69.8 1350.4 65.6 1354.9 65.6 C 1359.6000000000001 65.6 1362 69.6 1362 74.5 C 1361.9 79.4 1359.6 83.4 1354.9 83.4 z M 1378.7 63.6 C 1375.2 63.6 1372.6000000000001 65.7 1371.2 68.8 L 1371.2 64.1 L 1368.7 64.1 L 1368.7 92.3 L 1371.2 92.3 L 1371.2 80.6 C 1372.6000000000001 83.5 1375.1000000000001 85.39999999999999 1378.7 85.39999999999999 C 1384.6000000000001 85.39999999999999 1387.9 80.6 1387.9 74.49999999999999 C 1387.9 68.39999999999998 1384.6 63.6 1378.7 63.6 z M 1378.3 83.4 C 1373.5 83.4 1371.2 79.4 1371.2 74.5 C 1371.2 69.8 1373.8 65.6 1378.3 65.6 C 1383 65.6 1385.3 69.6 1385.3 74.5 C 1385.3 79.4 1383 83.4 1378.3 83.4 z M 1395 85 L 1395 54.4 L 1392.5 54.4 L 1392.5 85 L 1395 85 z M 1409.2 80.9 L 1401.7 64 L 1399.1000000000001 64 L 1407.9 83.6 L 1404.1000000000001 92.19999999999999 L 1406.7 92.19999999999999 L 1418.6000000000001 63.999999999999986 L 1416.0000000000002 63.999999999999986 L 1409.2 80.9 z M 1453.8 75.7 C 1453.2 79.8 1449.8 83.2 1444.3999999999999 83.2 C 1437.6 83.2 1433.6 77.9 1433.6 70.5 C 1433.6 63.3 1437.5 58 1444.3 58 C 1449.8 58 1453.2 61.4 1453.6 65.7 L 1456.1999999999998 65.7 C 1455.6 60.400000000000006 1451.6 55.800000000000004 1444.3999999999999 55.800000000000004 C 1435.8999999999999 55.800000000000004 1430.9999999999998 62.2 1430.9999999999998 70.60000000000001 C 1430.9999999999998 79.10000000000001 1436.0999999999997 85.4 1444.4999999999998 85.4 C 1451.5999999999997 85.4 1455.6999999999998 80.9 1456.3999999999999 75.7 L 1453.8 75.7 z M 1471.5 63.6 C 1467.8 63.6 1465.2 65.8 1463.9 68.2 L 1463.9 54.4 L 1461.4 54.4 L 1461.4 85 L 1463.9 85 L 1463.9 71.3 C 1464.6000000000001 68.7 1467.2 65.7 1470.8000000000002 65.7 C 1473.9 65.7 1475.8000000000002 67.3 1475.8000000000002 71.9 L 1475.8000000000002 84.9 L 1478.2000000000003 84.9 L 1478.2000000000003 71.5 C 1478.2 65.8 1475.7 63.6 1471.5 63.6 z M 1501.4 83 C 1499.9 83 1499.5 82.2 1499.5 80.1 L 1499.5 71.6 C 1499.5 66 1497.3 63.699999999999996 1491.8 63.699999999999996 C 1487 63.699999999999996 1483.7 66 1483.7 70 L 1486.1000000000001 70 C 1486.1000000000001 67.1 1488.5000000000002 65.7 1491.8000000000002 65.7 C 1496.1000000000001 65.7 1497.0000000000002 67.7 1497.0000000000002 71.60000000000001 L 1497.0000000000002 72.7 L 1492.2000000000003 72.9 C 1485.8000000000002 73.2 1482.7000000000003 75.60000000000001 1482.7000000000003 79.7 C 1482.7000000000003 83.4 1485.4000000000003 85.5 1489.5000000000002 85.5 C 1492.9000000000003 85.5 1495.6000000000001 84 1497.1000000000001 81.4 C 1497.3000000000002 84 1498.6000000000001 85.2 1501.4 85.2 L 1502.2 85.2 L 1502.2 83.2 L 1501.4 83.2 z M 1489.9 83.4 C 1486.9 83.4 1485.2 82 1485.2 79.4 C 1485.2 75.5 1489 74.9 1492.6000000000001 74.7 L 1497.1000000000001 74.5 L 1497.1000000000001 77 C 1496.6 80.7 1493.7 83.4 1489.9 83.4 z M 1506.2 60.5 L 1508.7 60.5 L 1508.7 54.4 L 1506.2 54.4 L 1506.2 60.5 z M 1508.7 85 L 1508.7 64.1 L 1506.2 64.1 L 1506.2 85 L 1508.7 85 z M 1524.5 63.6 C 1520.8 63.6 1518.2 65.8 1516.9 68.3 L 1516.9 64.1 L 1514.4 64.1 L 1514.4 85 L 1516.9 85 L 1516.9 71.3 C 1517.6000000000001 68.7 1520.2 65.7 1523.8000000000002 65.7 C 1526.9 65.7 1528.7000000000003 67.3 1528.7000000000003 71.9 L 1528.7000000000003 84.9 L 1531.2000000000003 84.9 L 1531.2000000000003 71.5 C 1531.3 65.8 1528.7 63.6 1524.5 63.6 z" stroke-linecap="round" />
</g>
		<g transform="matrix(1 0 0 1 -441.3 60)"  >
<path style="stroke: rgb(0,0,0); stroke-width: 1; stroke-dasharray: none; stroke-linecap: butt; stroke-dashoffset: 0; stroke-linejoin: miter; stroke-miterlimit: 10; fill: none; fill-rule: nonzero; opacity: 1;" vector-effect="non-scaling-stroke"  transform=" translate(-409.55, -467.35)" d="M 393.2 409.6 L 434.59999999999997 453.20000000000005 L 423.7 525.1 C 423.7 525.1 423.7 525.1 423.7 525.1 L 384.5 478.3 L 393.2 409.6 z" stroke-linecap="round" />
</g>
		<g transform="matrix(1 0 0 1 -400.7 17.2)"  >
<path style="stroke: rgb(0,0,0); stroke-width: 1; stroke-dasharray: none; stroke-linecap: butt; stroke-dashoffset: 0; stroke-linejoin: miter; stroke-miterlimit: 10; fill: none; fill-rule: nonzero; opacity: 1;" vector-effect="non-scaling-stroke"  transform=" translate(-450.15, -424.55)" d="M 434.7 453.2 L 507.2 437.9 L 462 395.9 L 393.1 408.9" stroke-linecap="round" />
</g>
		<g transform="matrix(1 0 0 1 -385.3 74.35)"  >
<path style="stroke: rgb(0,0,0); stroke-width: 1; stroke-dasharray: none; stroke-linecap: butt; stroke-dashoffset: 0; stroke-linejoin: miter; stroke-miterlimit: 10; fill: none; fill-rule: nonzero; opacity: 1;" vector-effect="non-scaling-stroke"  transform=" translate(-465.55, -481.7)" d="M 423.4 525.2 L 492.4 506.1 L 507.7 438.20000000000005" stroke-linecap="round" />
</g>
		<g transform="matrix(1 0 0 1 -445.35 84.6)"  >
<path style="stroke: rgb(0,0,0); stroke-width: 1; stroke-dasharray: none; stroke-linecap: butt; stroke-dashoffset: 0; stroke-linejoin: miter; stroke-miterlimit: 10; fill: none; fill-rule: nonzero; opacity: 1;" vector-effect="non-scaling-stroke"  transform=" translate(-405.5, -491.95)" d="M 385.7 468.7 L 425.3 515.2" stroke-linecap="round" />
</g>
		<g transform="matrix(1 0 0 1 -421.6 30.8)"  >
<path style="stroke: rgb(0,0,0); stroke-width: 1; stroke-dasharray: none; stroke-linecap: butt; stroke-dashoffset: 0; stroke-linejoin: miter; stroke-miterlimit: 10; fill: none; fill-rule: nonzero; opacity: 1;" vector-effect="non-scaling-stroke"  transform=" translate(-429.25, -438.15)" d="M 467.8 401.5 L 398 414.6 L 390.7 474.8" stroke-linecap="round" />
</g>
		<g transform="matrix(1 0 0 1 -373.95 11.15)"  >
<path style="stroke: rgb(0,0,0); stroke-width: 1; stroke-dasharray: none; stroke-linecap: butt; stroke-dashoffset: 0; stroke-linejoin: miter; stroke-miterlimit: 10; fill: none; fill-rule: nonzero; opacity: 1;" vector-effect="non-scaling-stroke"  transform=" translate(-476.9, -418.5)" d="M 454.2 397.5 L 499.59999999999997 439.5" stroke-linecap="round" />
</g>
		<g transform="matrix(1 0 0 1 -411.15 79.25)"  >
<path style="stroke: rgb(0,0,0); stroke-width: 1; stroke-dasharray: none; stroke-linecap: butt; stroke-dashoffset: 0; stroke-linejoin: miter; stroke-miterlimit: 10; fill: none; fill-rule: nonzero; opacity: 1;" vector-effect="non-scaling-stroke"  transform=" translate(-439.7, -486.6)" d="M 434.6 522.1 L 444.8 451.1" stroke-linecap="round" />
</g>
		<g transform="matrix(1 0 0 1 -376.4 47.15)"  >
<path style="stroke: rgb(0,0,0); stroke-width: 1; stroke-dasharray: none; stroke-linecap: butt; stroke-dashoffset: 0; stroke-linejoin: miter; stroke-miterlimit: 10; fill: none; fill-rule: nonzero; opacity: 1;" vector-effect="non-scaling-stroke"  transform=" translate(-474.45, -454.5)" d="M 505.5 447.6 L 443.4 461.40000000000003" stroke-linecap="round" />
</g>
		<g transform="matrix(1 0 0 1 175.6 -89.3)"  >
<path style="stroke: rgb(0,0,0); stroke-width: 1; stroke-dasharray: none; stroke-linecap: butt; stroke-dashoffset: 0; stroke-linejoin: miter; stroke-miterlimit: 10; fill: none; fill-rule: nonzero; opacity: 1;" vector-effect="non-scaling-stroke"  transform=" translate(-1026.45, -318.05)" d="M 1010.1 260.3 L 1051.5 303.90000000000003 L 1040.6 375.80000000000007 C 1040.6 375.80000000000007 1040.6 375.80000000000007 1040.6 375.80000000000007 L 1001.3999999999999 329.00000000000006 L 1010.1 260.3 z" stroke-linecap="round" />
</g>
		<g transform="matrix(1 0 0 1 216.1 -132.05)"  >
<path style="stroke: rgb(0,0,0); stroke-width: 1; stroke-dasharray: none; stroke-linecap: butt; stroke-dashoffset: 0; stroke-linejoin: miter; stroke-miterlimit: 10; fill: none; fill-rule: nonzero; opacity: 1;" vector-effect="non-scaling-stroke"  transform=" translate(-1066.95, -275.3)" d="M 1051.5 303.9 L 1124 288.59999999999997 L 1078.8 246.69999999999996 L 1009.9 259.69999999999993" stroke-linecap="round" />
</g>
		<g transform="matrix(1 0 0 1 231.5 -74.95)"  >
<path style="stroke: rgb(0,0,0); stroke-width: 1; stroke-dasharray: none; stroke-linecap: butt; stroke-dashoffset: 0; stroke-linejoin: miter; stroke-miterlimit: 10; fill: none; fill-rule: nonzero; opacity: 1;" vector-effect="non-scaling-stroke"  transform=" translate(-1082.35, -332.4)" d="M 1040.2 375.9 L 1109.2 356.79999999999995 L 1124.5 288.9" stroke-linecap="round" />
</g>
		<g transform="matrix(1 0 0 1 171.45 -64.75)"  >
<path style="stroke: rgb(0,0,0); stroke-width: 1; stroke-dasharray: none; stroke-linecap: butt; stroke-dashoffset: 0; stroke-linejoin: miter; stroke-miterlimit: 10; fill: none; fill-rule: nonzero; opacity: 1;" vector-effect="non-scaling-stroke"  transform=" translate(-1022.3, -342.6)" d="M 1002.5 319.4 L 1042.1 365.79999999999995" stroke-linecap="round" />
</g>
		<g transform="matrix(1 0 0 1 195.3 -118.5)"  >
<path style="stroke: rgb(0,0,0); stroke-width: 1; stroke-dasharray: none; stroke-linecap: butt; stroke-dashoffset: 0; stroke-linejoin: miter; stroke-miterlimit: 10; fill: none; fill-rule: nonzero; opacity: 1;" vector-effect="non-scaling-stroke"  transform=" translate(-1046.15, -288.85)" d="M 1084.7 252.2 L 1014.9000000000001 265.3 L 1007.6000000000001 325.5" stroke-linecap="round" />
</g>
		<g transform="matrix(1 0 0 1 242.95 -138.15)"  >
<path style="stroke: rgb(0,0,0); stroke-width: 1; stroke-dasharray: none; stroke-linecap: butt; stroke-dashoffset: 0; stroke-linejoin: miter; stroke-miterlimit: 10; fill: none; fill-rule: nonzero; opacity: 1;" vector-effect="non-scaling-stroke"  transform=" translate(-1093.8, -269.2)" d="M 1071.1 248.2 L 1116.5 290.2" stroke-linecap="round" />
</g>
		<g transform="matrix(1 0 0 1 205.75 -70.1)"  >
<path style="stroke: rgb(0,0,0); stroke-width: 1; stroke-dasharray: none; stroke-linecap: butt; stroke-dashoffset: 0; stroke-linejoin: miter; stroke-miterlimit: 10; fill: none; fill-rule: nonzero; opacity: 1;" vector-effect="non-scaling-stroke"  transform=" translate(-1056.6, -337.25)" d="M 1051.5 372.8 L 1061.7 301.70000000000005" stroke-linecap="round" />
</g>
		<g transform="matrix(1 0 0 1 240.4 -102.05)"  >
<path style="stroke: rgb(0,0,0); stroke-width: 1; stroke-dasharray: none; stroke-linecap: butt; stroke-dashoffset: 0; stroke-linejoin: miter; stroke-miterlimit: 10; fill: none; fill-rule: nonzero; opacity: 1;" vector-effect="non-scaling-stroke"  transform=" translate(-1091.25, -305.3)" d="M 1122.3 298.4 L 1060.2 312.2" stroke-linecap="round" />
</g>
		<g transform="matrix(1 0 0 1 -390.95 -232.55)"  >
<path style="stroke: rgb(0,0,0); stroke-width: 1; stroke-dasharray: none; stroke-linecap: butt; stroke-dashoffset: 0; stroke-linejoin: miter; stroke-miterlimit: 10; fill: none; fill-rule: nonzero; opacity: 1;" vector-effect="non-scaling-stroke"  transform=" translate(-459.9, -174.8)" d="M 450.2 140.5 L 474.8 166.4 L 468.3 209.10000000000002 C 468.3 209.10000000000002 468.3 209.10000000000002 468.3 209.10000000000002 L 445 181.3 L 450.2 140.5 z" stroke-linecap="round" />
</g>
		<g transform="matrix(1 0 0 1 -366.9 -257.95)"  >
<path style="stroke: rgb(0,0,0); stroke-width: 1; stroke-dasharray: none; stroke-linecap: butt; stroke-dashoffset: 0; stroke-linejoin: miter; stroke-miterlimit: 10; fill: none; fill-rule: nonzero; opacity: 1;" vector-effect="non-scaling-stroke"  transform=" translate(-483.95, -149.4)" d="M 474.8 166.4 L 517.9 157.3 L 491 132.4 L 450 140.1" stroke-linecap="round" />
</g>
		<g transform="matrix(1 0 0 1 -357.7 -224.05)"  >
<path style="stroke: rgb(0,0,0); stroke-width: 1; stroke-dasharray: none; stroke-linecap: butt; stroke-dashoffset: 0; stroke-linejoin: miter; stroke-miterlimit: 10; fill: none; fill-rule: nonzero; opacity: 1;" vector-effect="non-scaling-stroke"  transform=" translate(-493.15, -183.3)" d="M 468.1 209.2 L 509.1 197.79999999999998 L 518.2 157.39999999999998" stroke-linecap="round" />
</g>
		<g transform="matrix(1 0 0 1 -393.4 -217.85)"  >
<path style="stroke: rgb(0,0,0); stroke-width: 1; stroke-dasharray: none; stroke-linecap: butt; stroke-dashoffset: 0; stroke-linejoin: miter; stroke-miterlimit: 10; fill: none; fill-rule: nonzero; opacity: 1;" vector-effect="non-scaling-stroke"  transform=" translate(-457.45, -189.5)" d="M 445.7 175.7 L 469.2 203.29999999999998" stroke-linecap="round" />
</g>
		<g transform="matrix(1 0 0 1 -379.25 -249.85)"  >
<path style="stroke: rgb(0,0,0); stroke-width: 1; stroke-dasharray: none; stroke-linecap: butt; stroke-dashoffset: 0; stroke-linejoin: miter; stroke-miterlimit: 10; fill: none; fill-rule: nonzero; opacity: 1;" vector-effect="non-scaling-stroke"  transform=" translate(-471.6, -157.5)" d="M 494.5 135.7 L 453 143.5 L 448.7 179.3" stroke-linecap="round" />
</g>
		<g transform="matrix(1 0 0 1 -350.95 -261.55)"  >
<path style="stroke: rgb(0,0,0); stroke-width: 1; stroke-dasharray: none; stroke-linecap: butt; stroke-dashoffset: 0; stroke-linejoin: miter; stroke-miterlimit: 10; fill: none; fill-rule: nonzero; opacity: 1;" vector-effect="non-scaling-stroke"  transform=" translate(-499.9, -145.8)" d="M 486.4 133.3 L 513.4 158.3" stroke-linecap="round" />
</g>
		<g transform="matrix(1 0 0 1 -373 -221.05)"  >
<path style="stroke: rgb(0,0,0); stroke-width: 1; stroke-dasharray: none; stroke-linecap: butt; stroke-dashoffset: 0; stroke-linejoin: miter; stroke-miterlimit: 10; fill: none; fill-rule: nonzero; opacity: 1;" vector-effect="non-scaling-stroke"  transform=" translate(-477.85, -186.3)" d="M 474.8 207.4 L 480.90000000000003 165.2" stroke-linecap="round" />
</g>
		<g transform="matrix(1 0 0 1 -352.4 -240.15)"  >
<path style="stroke: rgb(0,0,0); stroke-width: 1; stroke-dasharray: none; stroke-linecap: butt; stroke-dashoffset: 0; stroke-linejoin: miter; stroke-miterlimit: 10; fill: none; fill-rule: nonzero; opacity: 1;" vector-effect="non-scaling-stroke"  transform=" translate(-498.45, -167.2)" d="M 516.9 163.1 L 480 171.29999999999998" stroke-linecap="round" />
</g>
		<g transform="matrix(1 0 0 1 -194.75 -77.85)"  >
<path style="stroke: rgb(0,0,0); stroke-width: 1; stroke-dasharray: none; stroke-linecap: butt; stroke-dashoffset: 0; stroke-linejoin: miter; stroke-miterlimit: 10; fill: none; fill-rule: nonzero; opacity: 1;" vector-effect="non-scaling-stroke"  transform=" translate(-656.1, -329.5)" d="M 646.4 295.2 L 671 321.09999999999997 L 664.5 363.79999999999995 C 664.5 363.79999999999995 664.5 363.79999999999995 664.5 363.79999999999995 L 641.2 336 L 646.4 295.2 z" stroke-linecap="round" />
</g>
		<g transform="matrix(1 0 0 1 -170.7 -103.25)"  >
<path style="stroke: rgb(0,0,0); stroke-width: 1; stroke-dasharray: none; stroke-linecap: butt; stroke-dashoffset: 0; stroke-linejoin: miter; stroke-miterlimit: 10; fill: none; fill-rule: nonzero; opacity: 1;" vector-effect="non-scaling-stroke"  transform=" translate(-680.15, -304.1)" d="M 671 321.1 L 714.1 312 L 687.2 287.1 L 646.2 294.8" stroke-linecap="round" />
</g>
		<g transform="matrix(1 0 0 1 -161.4 -69.35)"  >
<path style="stroke: rgb(0,0,0); stroke-width: 1; stroke-dasharray: none; stroke-linecap: butt; stroke-dashoffset: 0; stroke-linejoin: miter; stroke-miterlimit: 10; fill: none; fill-rule: nonzero; opacity: 1;" vector-effect="non-scaling-stroke"  transform=" translate(-689.45, -338)" d="M 664.4 363.9 L 705.4 352.5 L 714.5 312.1" stroke-linecap="round" />
</g>
		<g transform="matrix(1 0 0 1 -197.2 -63.15)"  >
<path style="stroke: rgb(0,0,0); stroke-width: 1; stroke-dasharray: none; stroke-linecap: butt; stroke-dashoffset: 0; stroke-linejoin: miter; stroke-miterlimit: 10; fill: none; fill-rule: nonzero; opacity: 1;" vector-effect="non-scaling-stroke"  transform=" translate(-653.65, -344.2)" d="M 641.9 330.4 L 665.4 358" stroke-linecap="round" />
</g>
		<g transform="matrix(1 0 0 1 -182.95 -95.15)"  >
<path style="stroke: rgb(0,0,0); stroke-width: 1; stroke-dasharray: none; stroke-linecap: butt; stroke-dashoffset: 0; stroke-linejoin: miter; stroke-miterlimit: 10; fill: none; fill-rule: nonzero; opacity: 1;" vector-effect="non-scaling-stroke"  transform=" translate(-667.9, -312.2)" d="M 690.8 290.4 L 649.3 298.2 L 645 334" stroke-linecap="round" />
</g>
		<g transform="matrix(1 0 0 1 -154.65 -106.85)"  >
<path style="stroke: rgb(0,0,0); stroke-width: 1; stroke-dasharray: none; stroke-linecap: butt; stroke-dashoffset: 0; stroke-linejoin: miter; stroke-miterlimit: 10; fill: none; fill-rule: nonzero; opacity: 1;" vector-effect="non-scaling-stroke"  transform=" translate(-696.2, -300.5)" d="M 682.7 288 L 709.7 313" stroke-linecap="round" />
</g>
		<g transform="matrix(1 0 0 1 -176.8 -66.35)"  >
<path style="stroke: rgb(0,0,0); stroke-width: 1; stroke-dasharray: none; stroke-linecap: butt; stroke-dashoffset: 0; stroke-linejoin: miter; stroke-miterlimit: 10; fill: none; fill-rule: nonzero; opacity: 1;" vector-effect="non-scaling-stroke"  transform=" translate(-674.05, -341)" d="M 671 362.1 L 677.1 319.90000000000003" stroke-linecap="round" />
</g>
		<g transform="matrix(1 0 0 1 -156.2 -85.45)"  >
<path style="stroke: rgb(0,0,0); stroke-width: 1; stroke-dasharray: none; stroke-linecap: butt; stroke-dashoffset: 0; stroke-linejoin: miter; stroke-miterlimit: 10; fill: none; fill-rule: nonzero; opacity: 1;" vector-effect="non-scaling-stroke"  transform=" translate(-694.65, -321.9)" d="M 713.1 317.8 L 676.2 326" stroke-linecap="round" />
</g>
		<g transform="matrix(1 0 0 1 -173.2 198.65)"  >
<path style="stroke: rgb(0,0,0); stroke-width: 1; stroke-dasharray: none; stroke-linecap: butt; stroke-dashoffset: 0; stroke-linejoin: miter; stroke-miterlimit: 10; fill: none; fill-rule: nonzero; opacity: 1;" vector-effect="non-scaling-stroke"  transform=" translate(-677.65, -606)" d="M 664.5 559.6 L 697.8 594.6 L 689 652.4 C 689 652.4 689 652.4 689 652.4 L 657.5 614.8 L 664.5 559.6 z" stroke-linecap="round" />
</g>
		<g transform="matrix(1 0 0 1 -140.7 164.25)"  >
<path style="stroke: rgb(0,0,0); stroke-width: 1; stroke-dasharray: none; stroke-linecap: butt; stroke-dashoffset: 0; stroke-linejoin: miter; stroke-miterlimit: 10; fill: none; fill-rule: nonzero; opacity: 1;" vector-effect="non-scaling-stroke"  transform=" translate(-710.15, -571.6)" d="M 697.8 594.6 L 756 582.3000000000001 L 719.7 548.6 L 664.3000000000001 559" stroke-linecap="round" />
</g>
		<g transform="matrix(1 0 0 1 -128.3 210.15)"  >
<path style="stroke: rgb(0,0,0); stroke-width: 1; stroke-dasharray: none; stroke-linecap: butt; stroke-dashoffset: 0; stroke-linejoin: miter; stroke-miterlimit: 10; fill: none; fill-rule: nonzero; opacity: 1;" vector-effect="non-scaling-stroke"  transform=" translate(-722.55, -617.5)" d="M 688.7 652.5 L 744.1 637.1 L 756.4 582.5" stroke-linecap="round" />
</g>
		<g transform="matrix(1 0 0 1 -176.55 218.4)"  >
<path style="stroke: rgb(0,0,0); stroke-width: 1; stroke-dasharray: none; stroke-linecap: butt; stroke-dashoffset: 0; stroke-linejoin: miter; stroke-miterlimit: 10; fill: none; fill-rule: nonzero; opacity: 1;" vector-effect="non-scaling-stroke"  transform=" translate(-674.3, -625.75)" d="M 658.4 607.1 L 690.1999999999999 644.4" stroke-linecap="round" />
</g>
		<g transform="matrix(1 0 0 1 -157.45 175.25)"  >
<path style="stroke: rgb(0,0,0); stroke-width: 1; stroke-dasharray: none; stroke-linecap: butt; stroke-dashoffset: 0; stroke-linejoin: miter; stroke-miterlimit: 10; fill: none; fill-rule: nonzero; opacity: 1;" vector-effect="non-scaling-stroke"  transform=" translate(-693.4, -582.6)" d="M 724.4 553.1 L 668.3 563.7 L 662.4 612.1" stroke-linecap="round" />
</g>
		<g transform="matrix(1 0 0 1 -119.15 159.45)"  >
<path style="stroke: rgb(0,0,0); stroke-width: 1; stroke-dasharray: none; stroke-linecap: butt; stroke-dashoffset: 0; stroke-linejoin: miter; stroke-miterlimit: 10; fill: none; fill-rule: nonzero; opacity: 1;" vector-effect="non-scaling-stroke"  transform=" translate(-731.7, -566.8)" d="M 713.5 549.9 L 749.9 583.6999999999999" stroke-linecap="round" />
</g>
		<g transform="matrix(1 0 0 1 -148.95 214.1)"  >
<path style="stroke: rgb(0,0,0); stroke-width: 1; stroke-dasharray: none; stroke-linecap: butt; stroke-dashoffset: 0; stroke-linejoin: miter; stroke-miterlimit: 10; fill: none; fill-rule: nonzero; opacity: 1;" vector-effect="non-scaling-stroke"  transform=" translate(-701.9, -621.45)" d="M 697.8 650 L 706 592.9" stroke-linecap="round" />
</g>
		<g transform="matrix(1 0 0 1 -121.1 188.4)"  >
<path style="stroke: rgb(0,0,0); stroke-width: 1; stroke-dasharray: none; stroke-linecap: butt; stroke-dashoffset: 0; stroke-linejoin: miter; stroke-miterlimit: 10; fill: none; fill-rule: nonzero; opacity: 1;" vector-effect="non-scaling-stroke"  transform=" translate(-729.75, -595.75)" d="M 754.7 590.2 L 704.8000000000001 601.3000000000001" stroke-linecap="round" />
</g>
		<g transform="matrix(1 0 0 1 387.5 72.85)"  >
<path style="stroke: rgb(0,0,0); stroke-width: 1; stroke-dasharray: none; stroke-linecap: butt; stroke-dashoffset: 0; stroke-linejoin: miter; stroke-miterlimit: 10; fill: none; fill-rule: nonzero; opacity: 1;" vector-effect="non-scaling-stroke"  transform=" translate(-1238.35, -480.2)" d="M 1225.2 433.8 L 1258.5 468.8 L 1249.7 526.6 C 1249.7 526.6 1249.7 526.6 1249.7 526.6 L 1218.2 489 L 1225.2 433.8 z" stroke-linecap="round" />
</g>
		<g transform="matrix(1 0 0 1 419.9 38.6)"  >
<path style="stroke: rgb(0,0,0); stroke-width: 1; stroke-dasharray: none; stroke-linecap: butt; stroke-dashoffset: 0; stroke-linejoin: miter; stroke-miterlimit: 10; fill: none; fill-rule: nonzero; opacity: 1;" vector-effect="non-scaling-stroke"  transform=" translate(-1270.75, -445.95)" d="M 1258.4 468.9 L 1316.6000000000001 456.7 L 1280.3000000000002 423 L 1224.9 433.4" stroke-linecap="round" />
</g>
		<g transform="matrix(1 0 0 1 432.4 84.35)"  >
<path style="stroke: rgb(0,0,0); stroke-width: 1; stroke-dasharray: none; stroke-linecap: butt; stroke-dashoffset: 0; stroke-linejoin: miter; stroke-miterlimit: 10; fill: none; fill-rule: nonzero; opacity: 1;" vector-effect="non-scaling-stroke"  transform=" translate(-1283.25, -491.7)" d="M 1249.4 526.7 L 1304.8000000000002 511.30000000000007 L 1317.1000000000001 456.70000000000005" stroke-linecap="round" />
</g>
		<g transform="matrix(1 0 0 1 384.15 92.7)"  >
<path style="stroke: rgb(0,0,0); stroke-width: 1; stroke-dasharray: none; stroke-linecap: butt; stroke-dashoffset: 0; stroke-linejoin: miter; stroke-miterlimit: 10; fill: none; fill-rule: nonzero; opacity: 1;" vector-effect="non-scaling-stroke"  transform=" translate(-1235, -500.05)" d="M 1219.1 481.4 L 1250.8999999999999 518.6999999999999" stroke-linecap="round" />
</g>
		<g transform="matrix(1 0 0 1 403.25 49.4)"  >
<path style="stroke: rgb(0,0,0); stroke-width: 1; stroke-dasharray: none; stroke-linecap: butt; stroke-dashoffset: 0; stroke-linejoin: miter; stroke-miterlimit: 10; fill: none; fill-rule: nonzero; opacity: 1;" vector-effect="non-scaling-stroke"  transform=" translate(-1254.1, -456.75)" d="M 1285.1 427.3 L 1229 437.8 L 1223.1 486.2" stroke-linecap="round" />
</g>
		<g transform="matrix(1 0 0 1 441.55 33.65)"  >
<path style="stroke: rgb(0,0,0); stroke-width: 1; stroke-dasharray: none; stroke-linecap: butt; stroke-dashoffset: 0; stroke-linejoin: miter; stroke-miterlimit: 10; fill: none; fill-rule: nonzero; opacity: 1;" vector-effect="non-scaling-stroke"  transform=" translate(-1292.4, -441)" d="M 1274.2 424.1 L 1310.6000000000001 457.90000000000003" stroke-linecap="round" />
</g>
		<g transform="matrix(1 0 0 1 411.65 88.3)"  >
<path style="stroke: rgb(0,0,0); stroke-width: 1; stroke-dasharray: none; stroke-linecap: butt; stroke-dashoffset: 0; stroke-linejoin: miter; stroke-miterlimit: 10; fill: none; fill-rule: nonzero; opacity: 1;" vector-effect="non-scaling-stroke"  transform=" translate(-1262.5, -495.65)" d="M 1258.4 524.2 L 1266.6000000000001 467.1" stroke-linecap="round" />
</g>
		<g transform="matrix(1 0 0 1 439.55 62.6)"  >
<path style="stroke: rgb(0,0,0); stroke-width: 1; stroke-dasharray: none; stroke-linecap: butt; stroke-dashoffset: 0; stroke-linejoin: miter; stroke-miterlimit: 10; fill: none; fill-rule: nonzero; opacity: 1;" vector-effect="non-scaling-stroke"  transform=" translate(-1290.4, -469.95)" d="M 1315.3 464.4 L 1265.5 475.5" stroke-linecap="round" />
</g>
		<g transform="matrix(1 0 0 1 -610.7 -80.75)"  >
<path style="stroke: rgb(0,0,0); stroke-width: 1; stroke-dasharray: none; stroke-linecap: butt; stroke-dashoffset: 0; stroke-linejoin: miter; stroke-miterlimit: 10; fill: none; fill-rule: nonzero; opacity: 1;" vector-effect="non-scaling-stroke"  transform=" translate(-240.15, -326.6)" d="M 227 280.2 L 260.3 315.2 L 251.5 373 C 251.5 373 251.5 373 251.5 373 L 220 335.3 L 227 280.2 z" stroke-linecap="round" />
</g>
		<g transform="matrix(1 0 0 1 -578.2 -115.15)"  >
<path style="stroke: rgb(0,0,0); stroke-width: 1; stroke-dasharray: none; stroke-linecap: butt; stroke-dashoffset: 0; stroke-linejoin: miter; stroke-miterlimit: 10; fill: none; fill-rule: nonzero; opacity: 1;" vector-effect="non-scaling-stroke"  transform=" translate(-272.65, -292.2)" d="M 260.3 315.2 L 318.5 302.9 L 282.2 269.2 L 226.79999999999998 279.59999999999997" stroke-linecap="round" />
</g>
		<g transform="matrix(1 0 0 1 -565.8 -69.35)"  >
<path style="stroke: rgb(0,0,0); stroke-width: 1; stroke-dasharray: none; stroke-linecap: butt; stroke-dashoffset: 0; stroke-linejoin: miter; stroke-miterlimit: 10; fill: none; fill-rule: nonzero; opacity: 1;" vector-effect="non-scaling-stroke"  transform=" translate(-285.05, -338)" d="M 251.2 373 L 306.59999999999997 357.6 L 318.9 303" stroke-linecap="round" />
</g>
		<g transform="matrix(1 0 0 1 -614.05 -61)"  >
<path style="stroke: rgb(0,0,0); stroke-width: 1; stroke-dasharray: none; stroke-linecap: butt; stroke-dashoffset: 0; stroke-linejoin: miter; stroke-miterlimit: 10; fill: none; fill-rule: nonzero; opacity: 1;" vector-effect="non-scaling-stroke"  transform=" translate(-236.8, -346.35)" d="M 220.9 327.7 L 252.70000000000002 365" stroke-linecap="round" />
</g>
		<g transform="matrix(1 0 0 1 -594.95 -104.15)"  >
<path style="stroke: rgb(0,0,0); stroke-width: 1; stroke-dasharray: none; stroke-linecap: butt; stroke-dashoffset: 0; stroke-linejoin: miter; stroke-miterlimit: 10; fill: none; fill-rule: nonzero; opacity: 1;" vector-effect="non-scaling-stroke"  transform=" translate(-255.9, -303.2)" d="M 286.9 273.7 L 230.79999999999998 284.3 L 224.89999999999998 332.7" stroke-linecap="round" />
</g>
		<g transform="matrix(1 0 0 1 -556.65 -120.05)"  >
<path style="stroke: rgb(0,0,0); stroke-width: 1; stroke-dasharray: none; stroke-linecap: butt; stroke-dashoffset: 0; stroke-linejoin: miter; stroke-miterlimit: 10; fill: none; fill-rule: nonzero; opacity: 1;" vector-effect="non-scaling-stroke"  transform=" translate(-294.2, -287.3)" d="M 276 270.4 L 312.4 304.2" stroke-linecap="round" />
</g>
		<g transform="matrix(1 0 0 1 -586.55 -65.4)"  >
<path style="stroke: rgb(0,0,0); stroke-width: 1; stroke-dasharray: none; stroke-linecap: butt; stroke-dashoffset: 0; stroke-linejoin: miter; stroke-miterlimit: 10; fill: none; fill-rule: nonzero; opacity: 1;" vector-effect="non-scaling-stroke"  transform=" translate(-264.3, -341.95)" d="M 260.2 370.5 L 268.4 313.4" stroke-linecap="round" />
</g>
		<g transform="matrix(1 0 0 1 -558.7 -91.1)"  >
<path style="stroke: rgb(0,0,0); stroke-width: 1; stroke-dasharray: none; stroke-linecap: butt; stroke-dashoffset: 0; stroke-linejoin: miter; stroke-miterlimit: 10; fill: none; fill-rule: nonzero; opacity: 1;" vector-effect="non-scaling-stroke"  transform=" translate(-292.15, -316.25)" d="M 317.1 310.7 L 267.20000000000005 321.8" stroke-linecap="round" />
</g>
		<g transform="matrix(1 0 0 1 -823.25 -86.15)"  >
<path style="stroke: rgb(0,0,0); stroke-width: 1; stroke-dasharray: none; stroke-linecap: butt; stroke-dashoffset: 0; stroke-linejoin: miter; stroke-miterlimit: 10; fill: none; fill-rule: nonzero; opacity: 1;" vector-effect="non-scaling-stroke"  transform=" translate(-27.6, -321.2)" d="M 19.4 292.2 L 40.2 314.09999999999997 L 34.7 350.2 C 34.7 350.2 34.7 350.2 34.7 350.2 L 15 326.6 L 19.4 292.2 z" stroke-linecap="round" />
</g>
		<g transform="matrix(1 0 0 1 -802.9 -107.65)"  >
<path style="stroke: rgb(0,0,0); stroke-width: 1; stroke-dasharray: none; stroke-linecap: butt; stroke-dashoffset: 0; stroke-linejoin: miter; stroke-miterlimit: 10; fill: none; fill-rule: nonzero; opacity: 1;" vector-effect="non-scaling-stroke"  transform=" translate(-47.95, -299.7)" d="M 40.2 314.1 L 76.6 306.40000000000003 L 53.89999999999999 285.3 L 19.29999999999999 291.8" stroke-linecap="round" />
</g>
		<g transform="matrix(1 0 0 1 -795.2 -79)"  >
<path style="stroke: rgb(0,0,0); stroke-width: 1; stroke-dasharray: none; stroke-linecap: butt; stroke-dashoffset: 0; stroke-linejoin: miter; stroke-miterlimit: 10; fill: none; fill-rule: nonzero; opacity: 1;" vector-effect="non-scaling-stroke"  transform=" translate(-55.65, -328.35)" d="M 34.5 350.2 L 69.1 340.59999999999997 L 76.8 306.49999999999994" stroke-linecap="round" />
</g>
		<g transform="matrix(1 0 0 1 -825.3 -73.8)"  >
<path style="stroke: rgb(0,0,0); stroke-width: 1; stroke-dasharray: none; stroke-linecap: butt; stroke-dashoffset: 0; stroke-linejoin: miter; stroke-miterlimit: 10; fill: none; fill-rule: nonzero; opacity: 1;" vector-effect="non-scaling-stroke"  transform=" translate(-25.55, -333.55)" d="M 15.6 321.9 L 35.5 345.2" stroke-linecap="round" />
</g>
		<g transform="matrix(1 0 0 1 -813.4 -100.85)"  >
<path style="stroke: rgb(0,0,0); stroke-width: 1; stroke-dasharray: none; stroke-linecap: butt; stroke-dashoffset: 0; stroke-linejoin: miter; stroke-miterlimit: 10; fill: none; fill-rule: nonzero; opacity: 1;" vector-effect="non-scaling-stroke"  transform=" translate(-37.45, -306.5)" d="M 56.8 288.1 L 21.799999999999997 294.70000000000005 L 18.099999999999998 324.90000000000003" stroke-linecap="round" />
</g>
		<g transform="matrix(1 0 0 1 -789.45 -110.7)"  >
<path style="stroke: rgb(0,0,0); stroke-width: 1; stroke-dasharray: none; stroke-linecap: butt; stroke-dashoffset: 0; stroke-linejoin: miter; stroke-miterlimit: 10; fill: none; fill-rule: nonzero; opacity: 1;" vector-effect="non-scaling-stroke"  transform=" translate(-61.4, -296.65)" d="M 50 286.1 L 72.8 307.20000000000005" stroke-linecap="round" />
</g>
		<g transform="matrix(1 0 0 1 -808.1 -76.6)"  >
<path style="stroke: rgb(0,0,0); stroke-width: 1; stroke-dasharray: none; stroke-linecap: butt; stroke-dashoffset: 0; stroke-linejoin: miter; stroke-miterlimit: 10; fill: none; fill-rule: nonzero; opacity: 1;" vector-effect="non-scaling-stroke"  transform=" translate(-42.75, -330.75)" d="M 40.2 348.6 L 45.300000000000004 312.90000000000003" stroke-linecap="round" />
</g>
		<g transform="matrix(1 0 0 1 -790.7 -92.6)"  >
<path style="stroke: rgb(0,0,0); stroke-width: 1; stroke-dasharray: none; stroke-linecap: butt; stroke-dashoffset: 0; stroke-linejoin: miter; stroke-miterlimit: 10; fill: none; fill-rule: nonzero; opacity: 1;" vector-effect="non-scaling-stroke"  transform=" translate(-60.15, -314.75)" d="M 75.7 311.3 L 44.6 318.2" stroke-linecap="round" />
</g>
		<g transform="matrix(1 0 0 1 -616.25 207.95)"  >
<path style="stroke: rgb(0,0,0); stroke-width: 1; stroke-dasharray: none; stroke-linecap: butt; stroke-dashoffset: 0; stroke-linejoin: miter; stroke-miterlimit: 10; fill: none; fill-rule: nonzero; opacity: 1;" vector-effect="non-scaling-stroke"  transform=" translate(-234.6, -615.3)" d="M 226.4 586.3 L 247.20000000000002 608.1999999999999 L 241.70000000000002 644.3 C 241.70000000000002 644.3 241.70000000000002 644.3 241.70000000000002 644.3 L 222.00000000000003 620.8 L 226.4 586.3 z" stroke-linecap="round" />
</g>
		<g transform="matrix(1 0 0 1 -595.9 186.35)"  >
<path style="stroke: rgb(0,0,0); stroke-width: 1; stroke-dasharray: none; stroke-linecap: butt; stroke-dashoffset: 0; stroke-linejoin: miter; stroke-miterlimit: 10; fill: none; fill-rule: nonzero; opacity: 1;" vector-effect="non-scaling-stroke"  transform=" translate(-254.95, -593.7)" d="M 247.2 608.1 L 283.59999999999997 600.4 L 260.9 579.3 L 226.29999999999998 585.8" stroke-linecap="round" />
</g>
		<g transform="matrix(1 0 0 1 -588.1 215.1)"  >
<path style="stroke: rgb(0,0,0); stroke-width: 1; stroke-dasharray: none; stroke-linecap: butt; stroke-dashoffset: 0; stroke-linejoin: miter; stroke-miterlimit: 10; fill: none; fill-rule: nonzero; opacity: 1;" vector-effect="non-scaling-stroke"  transform=" translate(-262.75, -622.45)" d="M 241.6 644.3 L 276.2 634.6999999999999 L 283.9 600.5999999999999" stroke-linecap="round" />
</g>
		<g transform="matrix(1 0 0 1 -618.3 220.2)"  >
<path style="stroke: rgb(0,0,0); stroke-width: 1; stroke-dasharray: none; stroke-linecap: butt; stroke-dashoffset: 0; stroke-linejoin: miter; stroke-miterlimit: 10; fill: none; fill-rule: nonzero; opacity: 1;" vector-effect="non-scaling-stroke"  transform=" translate(-232.55, -627.55)" d="M 222.6 615.9 L 242.5 639.1999999999999" stroke-linecap="round" />
</g>
		<g transform="matrix(1 0 0 1 -606.35 193.25)"  >
<path style="stroke: rgb(0,0,0); stroke-width: 1; stroke-dasharray: none; stroke-linecap: butt; stroke-dashoffset: 0; stroke-linejoin: miter; stroke-miterlimit: 10; fill: none; fill-rule: nonzero; opacity: 1;" vector-effect="non-scaling-stroke"  transform=" translate(-244.5, -600.6)" d="M 263.9 582.2 L 228.79999999999998 588.8000000000001 L 225.1 619.0000000000001" stroke-linecap="round" />
</g>
		<g transform="matrix(1 0 0 1 -582.35 183.4)"  >
<path style="stroke: rgb(0,0,0); stroke-width: 1; stroke-dasharray: none; stroke-linecap: butt; stroke-dashoffset: 0; stroke-linejoin: miter; stroke-miterlimit: 10; fill: none; fill-rule: nonzero; opacity: 1;" vector-effect="non-scaling-stroke"  transform=" translate(-268.5, -590.75)" d="M 257.1 580.2 L 279.90000000000003 601.3000000000001" stroke-linecap="round" />
</g>
		<g transform="matrix(1 0 0 1 -601.1 217.5)"  >
<path style="stroke: rgb(0,0,0); stroke-width: 1; stroke-dasharray: none; stroke-linecap: butt; stroke-dashoffset: 0; stroke-linejoin: miter; stroke-miterlimit: 10; fill: none; fill-rule: nonzero; opacity: 1;" vector-effect="non-scaling-stroke"  transform=" translate(-249.75, -624.85)" d="M 247.2 642.7 L 252.29999999999998 607" stroke-linecap="round" />
</g>
		<g transform="matrix(1 0 0 1 -583.65 201.5)"  >
<path style="stroke: rgb(0,0,0); stroke-width: 1; stroke-dasharray: none; stroke-linecap: butt; stroke-dashoffset: 0; stroke-linejoin: miter; stroke-miterlimit: 10; fill: none; fill-rule: nonzero; opacity: 1;" vector-effect="non-scaling-stroke"  transform=" translate(-267.2, -608.85)" d="M 282.8 605.4 L 251.60000000000002 612.3" stroke-linecap="round" />
</g>
		<g transform="matrix(1 0 0 1 153.55 196.65)"  >
<path style="stroke: rgb(0,0,0); stroke-width: 1; stroke-dasharray: none; stroke-linecap: butt; stroke-dashoffset: 0; stroke-linejoin: miter; stroke-miterlimit: 10; fill: none; fill-rule: nonzero; opacity: 1;" vector-effect="non-scaling-stroke"  transform=" translate(-1004.4, -604)" d="M 996.2 575 L 1017 596.9 L 1011.5 633 C 1011.5 633 1011.5 633 1011.5 633 L 991.8 609.5 L 996.2 575 z" stroke-linecap="round" />
</g>
		<g transform="matrix(1 0 0 1 173.9 175.15)"  >
<path style="stroke: rgb(0,0,0); stroke-width: 1; stroke-dasharray: none; stroke-linecap: butt; stroke-dashoffset: 0; stroke-linejoin: miter; stroke-miterlimit: 10; fill: none; fill-rule: nonzero; opacity: 1;" vector-effect="non-scaling-stroke"  transform=" translate(-1024.75, -582.5)" d="M 1017 596.9 L 1053.4 589.1999999999999 L 1030.7 568.0999999999999 L 996.1 574.5999999999999" stroke-linecap="round" />
</g>
		<g transform="matrix(1 0 0 1 181.6 203.8)"  >
<path style="stroke: rgb(0,0,0); stroke-width: 1; stroke-dasharray: none; stroke-linecap: butt; stroke-dashoffset: 0; stroke-linejoin: miter; stroke-miterlimit: 10; fill: none; fill-rule: nonzero; opacity: 1;" vector-effect="non-scaling-stroke"  transform=" translate(-1032.45, -611.15)" d="M 1011.3 633 L 1045.8999999999999 623.4 L 1053.6 589.3" stroke-linecap="round" />
</g>
		<g transform="matrix(1 0 0 1 151.5 209)"  >
<path style="stroke: rgb(0,0,0); stroke-width: 1; stroke-dasharray: none; stroke-linecap: butt; stroke-dashoffset: 0; stroke-linejoin: miter; stroke-miterlimit: 10; fill: none; fill-rule: nonzero; opacity: 1;" vector-effect="non-scaling-stroke"  transform=" translate(-1002.35, -616.35)" d="M 992.4 604.7 L 1012.3 628" stroke-linecap="round" />
</g>
		<g transform="matrix(1 0 0 1 163.45 181.95)"  >
<path style="stroke: rgb(0,0,0); stroke-width: 1; stroke-dasharray: none; stroke-linecap: butt; stroke-dashoffset: 0; stroke-linejoin: miter; stroke-miterlimit: 10; fill: none; fill-rule: nonzero; opacity: 1;" vector-effect="non-scaling-stroke"  transform=" translate(-1014.3, -589.3)" d="M 1033.7 570.9 L 998.6 577.5 L 994.9 607.7" stroke-linecap="round" />
</g>
		<g transform="matrix(1 0 0 1 187.35 172.1)"  >
<path style="stroke: rgb(0,0,0); stroke-width: 1; stroke-dasharray: none; stroke-linecap: butt; stroke-dashoffset: 0; stroke-linejoin: miter; stroke-miterlimit: 10; fill: none; fill-rule: nonzero; opacity: 1;" vector-effect="non-scaling-stroke"  transform=" translate(-1038.2, -579.45)" d="M 1026.8 568.9 L 1049.6 590" stroke-linecap="round" />
</g>
		<g transform="matrix(1 0 0 1 168.75 206.2)"  >
<path style="stroke: rgb(0,0,0); stroke-width: 1; stroke-dasharray: none; stroke-linecap: butt; stroke-dashoffset: 0; stroke-linejoin: miter; stroke-miterlimit: 10; fill: none; fill-rule: nonzero; opacity: 1;" vector-effect="non-scaling-stroke"  transform=" translate(-1019.6, -613.55)" d="M 1017 631.4 L 1022.2 595.6999999999999" stroke-linecap="round" />
</g>
		<g transform="matrix(1 0 0 1 186.05 190.2)"  >
<path style="stroke: rgb(0,0,0); stroke-width: 1; stroke-dasharray: none; stroke-linecap: butt; stroke-dashoffset: 0; stroke-linejoin: miter; stroke-miterlimit: 10; fill: none; fill-rule: nonzero; opacity: 1;" vector-effect="non-scaling-stroke"  transform=" translate(-1036.9, -597.55)" d="M 1052.5 594.1 L 1021.3 601" stroke-linecap="round" />
</g>
		<g transform="matrix(1 0 0 1 671.85 111.25)"  >
<path style="stroke: rgb(0,0,0); stroke-width: 1; stroke-dasharray: none; stroke-linecap: butt; stroke-dashoffset: 0; stroke-linejoin: miter; stroke-miterlimit: 10; fill: none; fill-rule: nonzero; opacity: 1;" vector-effect="non-scaling-stroke"  transform=" translate(-1522.7, -518.6)" d="M 1514.5 489.6 L 1535.3 511.5 L 1529.8 547.6 C 1529.8 547.6 1529.8 547.6 1529.8 547.6 L 1510.1 524.1 L 1514.5 489.6 z" stroke-linecap="round" />
</g>
		<g transform="matrix(1 0 0 1 692.2 89.75)"  >
<path style="stroke: rgb(0,0,0); stroke-width: 1; stroke-dasharray: none; stroke-linecap: butt; stroke-dashoffset: 0; stroke-linejoin: miter; stroke-miterlimit: 10; fill: none; fill-rule: nonzero; opacity: 1;" vector-effect="non-scaling-stroke"  transform=" translate(-1543.05, -497.1)" d="M 1535.3 511.5 L 1571.7 503.8 L 1549 482.7 L 1514.4 489.2" stroke-linecap="round" />
</g>
		<g transform="matrix(1 0 0 1 699.9 118.4)"  >
<path style="stroke: rgb(0,0,0); stroke-width: 1; stroke-dasharray: none; stroke-linecap: butt; stroke-dashoffset: 0; stroke-linejoin: miter; stroke-miterlimit: 10; fill: none; fill-rule: nonzero; opacity: 1;" vector-effect="non-scaling-stroke"  transform=" translate(-1550.75, -525.75)" d="M 1529.6 547.6 L 1564.1999999999998 538 L 1571.8999999999999 503.9" stroke-linecap="round" />
</g>
		<g transform="matrix(1 0 0 1 669.8 123.6)"  >
<path style="stroke: rgb(0,0,0); stroke-width: 1; stroke-dasharray: none; stroke-linecap: butt; stroke-dashoffset: 0; stroke-linejoin: miter; stroke-miterlimit: 10; fill: none; fill-rule: nonzero; opacity: 1;" vector-effect="non-scaling-stroke"  transform=" translate(-1520.65, -530.95)" d="M 1510.7 519.3 L 1530.6000000000001 542.5999999999999" stroke-linecap="round" />
</g>
		<g transform="matrix(1 0 0 1 681.65 96.55)"  >
<path style="stroke: rgb(0,0,0); stroke-width: 1; stroke-dasharray: none; stroke-linecap: butt; stroke-dashoffset: 0; stroke-linejoin: miter; stroke-miterlimit: 10; fill: none; fill-rule: nonzero; opacity: 1;" vector-effect="non-scaling-stroke"  transform=" translate(-1532.5, -503.9)" d="M 1551.9 485.5 L 1516.8000000000002 492.1 L 1513.1000000000001 522.3000000000001" stroke-linecap="round" />
</g>
		<g transform="matrix(1 0 0 1 705.65 86.7)"  >
<path style="stroke: rgb(0,0,0); stroke-width: 1; stroke-dasharray: none; stroke-linecap: butt; stroke-dashoffset: 0; stroke-linejoin: miter; stroke-miterlimit: 10; fill: none; fill-rule: nonzero; opacity: 1;" vector-effect="non-scaling-stroke"  transform=" translate(-1556.5, -494.05)" d="M 1545.1 483.5 L 1567.8999999999999 504.6" stroke-linecap="round" />
</g>
		<g transform="matrix(1 0 0 1 687 120.9)"  >
<path style="stroke: rgb(0,0,0); stroke-width: 1; stroke-dasharray: none; stroke-linecap: butt; stroke-dashoffset: 0; stroke-linejoin: miter; stroke-miterlimit: 10; fill: none; fill-rule: nonzero; opacity: 1;" vector-effect="non-scaling-stroke"  transform=" translate(-1537.85, -528.25)" d="M 1535.3 546.1 L 1540.3999999999999 510.40000000000003" stroke-linecap="round" />
</g>
		<g transform="matrix(1 0 0 1 704.35 104.8)"  >
<path style="stroke: rgb(0,0,0); stroke-width: 1; stroke-dasharray: none; stroke-linecap: butt; stroke-dashoffset: 0; stroke-linejoin: miter; stroke-miterlimit: 10; fill: none; fill-rule: nonzero; opacity: 1;" vector-effect="non-scaling-stroke"  transform=" translate(-1555.2, -512.15)" d="M 1570.8 508.7 L 1539.6 515.6" stroke-linecap="round" />
</g>
		<g transform="matrix(1 0 0 1 610.05 -166.15)"  >
<path style="stroke: rgb(0,0,0); stroke-width: 1; stroke-dasharray: none; stroke-linecap: butt; stroke-dashoffset: 0; stroke-linejoin: miter; stroke-miterlimit: 10; fill: none; fill-rule: nonzero; opacity: 1;" vector-effect="non-scaling-stroke"  transform=" translate(-1460.9, -241.2)" d="M 1452.7 212.2 L 1473.5 234.1 L 1468 270.2 C 1468 270.2 1468 270.2 1468 270.2 L 1448.3 246.7 L 1452.7 212.2 z" stroke-linecap="round" />
</g>
		<g transform="matrix(1 0 0 1 630.3 -187.65)"  >
<path style="stroke: rgb(0,0,0); stroke-width: 1; stroke-dasharray: none; stroke-linecap: butt; stroke-dashoffset: 0; stroke-linejoin: miter; stroke-miterlimit: 10; fill: none; fill-rule: nonzero; opacity: 1;" vector-effect="non-scaling-stroke"  transform=" translate(-1481.15, -219.7)" d="M 1473.4 234.1 L 1509.8000000000002 226.4 L 1487.1000000000001 205.3 L 1452.5000000000002 211.8" stroke-linecap="round" />
</g>
		<g transform="matrix(1 0 0 1 638.1 -159)"  >
<path style="stroke: rgb(0,0,0); stroke-width: 1; stroke-dasharray: none; stroke-linecap: butt; stroke-dashoffset: 0; stroke-linejoin: miter; stroke-miterlimit: 10; fill: none; fill-rule: nonzero; opacity: 1;" vector-effect="non-scaling-stroke"  transform=" translate(-1488.95, -248.35)" d="M 1467.8 270.2 L 1502.3999999999999 260.59999999999997 L 1510.1 226.49999999999997" stroke-linecap="round" />
</g>
		<g transform="matrix(1 0 0 1 608 -153.8)"  >
<path style="stroke: rgb(0,0,0); stroke-width: 1; stroke-dasharray: none; stroke-linecap: butt; stroke-dashoffset: 0; stroke-linejoin: miter; stroke-miterlimit: 10; fill: none; fill-rule: nonzero; opacity: 1;" vector-effect="non-scaling-stroke"  transform=" translate(-1458.85, -253.55)" d="M 1448.9 241.9 L 1468.8000000000002 265.2" stroke-linecap="round" />
</g>
		<g transform="matrix(1 0 0 1 619.9 -180.85)"  >
<path style="stroke: rgb(0,0,0); stroke-width: 1; stroke-dasharray: none; stroke-linecap: butt; stroke-dashoffset: 0; stroke-linejoin: miter; stroke-miterlimit: 10; fill: none; fill-rule: nonzero; opacity: 1;" vector-effect="non-scaling-stroke"  transform=" translate(-1470.75, -226.5)" d="M 1490.1 208.1 L 1455.1 214.7 L 1451.3999999999999 244.89999999999998" stroke-linecap="round" />
</g>
		<g transform="matrix(1 0 0 1 643.85 -190.7)"  >
<path style="stroke: rgb(0,0,0); stroke-width: 1; stroke-dasharray: none; stroke-linecap: butt; stroke-dashoffset: 0; stroke-linejoin: miter; stroke-miterlimit: 10; fill: none; fill-rule: nonzero; opacity: 1;" vector-effect="non-scaling-stroke"  transform=" translate(-1494.7, -216.65)" d="M 1483.3 206.1 L 1506.1 227.2" stroke-linecap="round" />
</g>
		<g transform="matrix(1 0 0 1 625.1 -156.6)"  >
<path style="stroke: rgb(0,0,0); stroke-width: 1; stroke-dasharray: none; stroke-linecap: butt; stroke-dashoffset: 0; stroke-linejoin: miter; stroke-miterlimit: 10; fill: none; fill-rule: nonzero; opacity: 1;" vector-effect="non-scaling-stroke"  transform=" translate(-1475.95, -250.75)" d="M 1473.4 268.6 L 1478.5 232.90000000000003" stroke-linecap="round" />
</g>
		<g transform="matrix(1 0 0 1 642.55 -172.6)"  >
<path style="stroke: rgb(0,0,0); stroke-width: 1; stroke-dasharray: none; stroke-linecap: butt; stroke-dashoffset: 0; stroke-linejoin: miter; stroke-miterlimit: 10; fill: none; fill-rule: nonzero; opacity: 1;" vector-effect="non-scaling-stroke"  transform=" translate(-1493.4, -234.75)" d="M 1509 231.3 L 1477.8 238.20000000000002" stroke-linecap="round" />
</g>
		<g transform="matrix(1 0 0 1 300.75 -238.35)"  >
<path style="stroke: rgb(0,0,0); stroke-width: 1; stroke-dasharray: none; stroke-linecap: butt; stroke-dashoffset: 0; stroke-linejoin: miter; stroke-miterlimit: 10; fill: none; fill-rule: nonzero; opacity: 1;" vector-effect="non-scaling-stroke"  transform=" translate(-1151.6, -169)" d="M 1143.4 140 L 1164.2 161.9 L 1158.7 198 C 1158.7 198 1158.7 198 1158.7 198 L 1139 174.5 L 1143.4 140 z" stroke-linecap="round" />
</g>
		<g transform="matrix(1 0 0 1 321.1 -259.85)"  >
<path style="stroke: rgb(0,0,0); stroke-width: 1; stroke-dasharray: none; stroke-linecap: butt; stroke-dashoffset: 0; stroke-linejoin: miter; stroke-miterlimit: 10; fill: none; fill-rule: nonzero; opacity: 1;" vector-effect="non-scaling-stroke"  transform=" translate(-1171.95, -147.5)" d="M 1164.2 161.9 L 1200.6000000000001 154.20000000000002 L 1177.9 133.10000000000002 L 1143.3000000000002 139.60000000000002" stroke-linecap="round" />
</g>
		<g transform="matrix(1 0 0 1 328.9 -231.2)"  >
<path style="stroke: rgb(0,0,0); stroke-width: 1; stroke-dasharray: none; stroke-linecap: butt; stroke-dashoffset: 0; stroke-linejoin: miter; stroke-miterlimit: 10; fill: none; fill-rule: nonzero; opacity: 1;" vector-effect="non-scaling-stroke"  transform=" translate(-1179.75, -176.15)" d="M 1158.6 198 L 1193.1999999999998 188.4 L 1200.8999999999999 154.3" stroke-linecap="round" />
</g>
		<g transform="matrix(1 0 0 1 298.7 -226)"  >
<path style="stroke: rgb(0,0,0); stroke-width: 1; stroke-dasharray: none; stroke-linecap: butt; stroke-dashoffset: 0; stroke-linejoin: miter; stroke-miterlimit: 10; fill: none; fill-rule: nonzero; opacity: 1;" vector-effect="non-scaling-stroke"  transform=" translate(-1149.55, -181.35)" d="M 1139.6 169.7 L 1159.5 193" stroke-linecap="round" />
</g>
		<g transform="matrix(1 0 0 1 310.7 -253.05)"  >
<path style="stroke: rgb(0,0,0); stroke-width: 1; stroke-dasharray: none; stroke-linecap: butt; stroke-dashoffset: 0; stroke-linejoin: miter; stroke-miterlimit: 10; fill: none; fill-rule: nonzero; opacity: 1;" vector-effect="non-scaling-stroke"  transform=" translate(-1161.55, -154.3)" d="M 1180.9 135.9 L 1145.9 142.5 L 1142.2 172.7" stroke-linecap="round" />
</g>
		<g transform="matrix(1 0 0 1 334.55 -262.9)"  >
<path style="stroke: rgb(0,0,0); stroke-width: 1; stroke-dasharray: none; stroke-linecap: butt; stroke-dashoffset: 0; stroke-linejoin: miter; stroke-miterlimit: 10; fill: none; fill-rule: nonzero; opacity: 1;" vector-effect="non-scaling-stroke"  transform=" translate(-1185.4, -144.45)" d="M 1174 133.9 L 1196.8 155" stroke-linecap="round" />
</g>
		<g transform="matrix(1 0 0 1 315.9 -228.7)"  >
<path style="stroke: rgb(0,0,0); stroke-width: 1; stroke-dasharray: none; stroke-linecap: butt; stroke-dashoffset: 0; stroke-linejoin: miter; stroke-miterlimit: 10; fill: none; fill-rule: nonzero; opacity: 1;" vector-effect="non-scaling-stroke"  transform=" translate(-1166.75, -178.65)" d="M 1164.2 196.5 L 1169.3 160.8" stroke-linecap="round" />
</g>
		<g transform="matrix(1 0 0 1 333.35 -244.8)"  >
<path style="stroke: rgb(0,0,0); stroke-width: 1; stroke-dasharray: none; stroke-linecap: butt; stroke-dashoffset: 0; stroke-linejoin: miter; stroke-miterlimit: 10; fill: none; fill-rule: nonzero; opacity: 1;" vector-effect="non-scaling-stroke"  transform=" translate(-1184.2, -162.55)" d="M 1199.8 159.1 L 1168.6 166" stroke-linecap="round" />
</g>
		<g transform="matrix(1 0 0 1 -32.65 50.55)"  >
<path style="stroke: rgb(0,0,0); stroke-width: 1; stroke-dasharray: none; stroke-linecap: butt; stroke-dashoffset: 0; stroke-linejoin: miter; stroke-miterlimit: 10; fill: none; fill-rule: nonzero; opacity: 1;" vector-effect="non-scaling-stroke"  transform=" translate(-818.2, -457.9)" d="M 810 428.9 L 830.8 450.79999999999995 L 825.3 486.9 C 825.3 486.9 825.3 486.9 825.3 486.9 L 805.5999999999999 463.4 L 810 428.9 z" stroke-linecap="round" />
</g>
		<g transform="matrix(1 0 0 1 -12.5 29.05)"  >
<path style="stroke: rgb(0,0,0); stroke-width: 1; stroke-dasharray: none; stroke-linecap: butt; stroke-dashoffset: 0; stroke-linejoin: miter; stroke-miterlimit: 10; fill: none; fill-rule: nonzero; opacity: 1;" vector-effect="non-scaling-stroke"  transform=" translate(-838.35, -436.4)" d="M 830.7 450.8 L 867.1 443.1 L 844.4 422 L 809.6 428.2" stroke-linecap="round" />
</g>
		<g transform="matrix(1 0 0 1 -4.6 57.8)"  >
<path style="stroke: rgb(0,0,0); stroke-width: 1; stroke-dasharray: none; stroke-linecap: butt; stroke-dashoffset: 0; stroke-linejoin: miter; stroke-miterlimit: 10; fill: none; fill-rule: nonzero; opacity: 1;" vector-effect="non-scaling-stroke"  transform=" translate(-846.25, -465.15)" d="M 825.1 487 L 859.7 477.4 L 867.4000000000001 443.29999999999995" stroke-linecap="round" />
</g>
		<g transform="matrix(1 0 0 1 -34.75 62.95)"  >
<path style="stroke: rgb(0,0,0); stroke-width: 1; stroke-dasharray: none; stroke-linecap: butt; stroke-dashoffset: 0; stroke-linejoin: miter; stroke-miterlimit: 10; fill: none; fill-rule: nonzero; opacity: 1;" vector-effect="non-scaling-stroke"  transform=" translate(-816.1, -470.3)" d="M 806.2 458.6 L 826 482" stroke-linecap="round" />
</g>
		<g transform="matrix(1 0 0 1 -22.85 35.95)"  >
<path style="stroke: rgb(0,0,0); stroke-width: 1; stroke-dasharray: none; stroke-linecap: butt; stroke-dashoffset: 0; stroke-linejoin: miter; stroke-miterlimit: 10; fill: none; fill-rule: nonzero; opacity: 1;" vector-effect="non-scaling-stroke"  transform=" translate(-828, -443.3)" d="M 847.4 424.9 L 812.3 431.5 L 808.5999999999999 461.7" stroke-linecap="round" />
</g>
		<g transform="matrix(1 0 0 1 1.15 26.1)"  >
<path style="stroke: rgb(0,0,0); stroke-width: 1; stroke-dasharray: none; stroke-linecap: butt; stroke-dashoffset: 0; stroke-linejoin: miter; stroke-miterlimit: 10; fill: none; fill-rule: nonzero; opacity: 1;" vector-effect="non-scaling-stroke"  transform=" translate(-852, -433.45)" d="M 840.6 422.9 L 863.4 444" stroke-linecap="round" />
</g>
		<g transform="matrix(1 0 0 1 -17.6 60.2)"  >
<path style="stroke: rgb(0,0,0); stroke-width: 1; stroke-dasharray: none; stroke-linecap: butt; stroke-dashoffset: 0; stroke-linejoin: miter; stroke-miterlimit: 10; fill: none; fill-rule: nonzero; opacity: 1;" vector-effect="non-scaling-stroke"  transform=" translate(-833.25, -467.55)" d="M 830.7 485.4 L 835.8000000000001 449.7" stroke-linecap="round" />
</g>
		<g transform="matrix(1 0 0 1 -0.15 44.2)"  >
<path style="stroke: rgb(0,0,0); stroke-width: 1; stroke-dasharray: none; stroke-linecap: butt; stroke-dashoffset: 0; stroke-linejoin: miter; stroke-miterlimit: 10; fill: none; fill-rule: nonzero; opacity: 1;" vector-effect="non-scaling-stroke"  transform=" translate(-850.7, -451.55)" d="M 866.3 448.1 L 835.0999999999999 455" stroke-linecap="round" />
</g>
		<g transform="matrix(1 0 0 1 -517.2 132.6)"  >
<path style="stroke: rgb(0,0,0); stroke-width: 1; stroke-dasharray: none; stroke-linecap: butt; stroke-dashoffset: 0; stroke-linejoin: miter; stroke-miterlimit: 10; fill: none; fill-rule: nonzero; opacity: 1;" vector-effect="non-scaling-stroke"  transform=" translate(-333.65, -539.95)" d="M 275.3 592.8 L 392 487.1" stroke-linecap="round" />
</g>
		<g transform="matrix(1 0 0 1 -271.05 -164.7)"  >
<path style="stroke: rgb(0,0,0); stroke-width: 1; stroke-dasharray: none; stroke-linecap: butt; stroke-dashoffset: 0; stroke-linejoin: miter; stroke-miterlimit: 10; fill: none; fill-rule: nonzero; opacity: 1;" vector-effect="non-scaling-stroke"  transform=" translate(-579.8, -242.65)" d="M 510.6 191 L 649 294.3" stroke-linecap="round" />
</g>
		<g transform="matrix(1 0 0 1 -385.75 -105.05)"  >
<path style="stroke: rgb(0,0,0); stroke-width: 1; stroke-dasharray: none; stroke-linecap: butt; stroke-dashoffset: 0; stroke-linejoin: miter; stroke-miterlimit: 10; fill: none; fill-rule: nonzero; opacity: 1;" vector-effect="non-scaling-stroke"  transform=" translate(-465.1, -302.3)" d="M 470.3 208.6 L 459.9 396" stroke-linecap="round" />
</g>
		<g transform="matrix(1 0 0 1 -500.2 -26.8)"  >
<path style="stroke: rgb(0,0,0); stroke-width: 1; stroke-dasharray: none; stroke-linecap: butt; stroke-dashoffset: 0; stroke-linejoin: miter; stroke-miterlimit: 10; fill: none; fill-rule: nonzero; opacity: 1;" vector-effect="non-scaling-stroke"  transform=" translate(-350.65, -380.55)" d="M 308.3 350.4 L 393 410.7" stroke-linecap="round" />
</g>
		<g transform="matrix(1 0 0 1 -270.65 -11.8)"  >
<path style="stroke: rgb(0,0,0); stroke-width: 1; stroke-dasharray: none; stroke-linecap: butt; stroke-dashoffset: 0; stroke-linejoin: miter; stroke-miterlimit: 10; fill: none; fill-rule: nonzero; opacity: 1;" vector-effect="non-scaling-stroke"  transform=" translate(-580.2, -395.55)" d="M 507.1 440.6 L 653.3 350.5" stroke-linecap="round" />
</g>
		<g transform="matrix(1 0 0 1 -267 103.05)"  >
<path style="stroke: rgb(0,0,0); stroke-width: 1; stroke-dasharray: none; stroke-linecap: butt; stroke-dashoffset: 0; stroke-linejoin: miter; stroke-miterlimit: 10; fill: none; fill-rule: nonzero; opacity: 1;" vector-effect="non-scaling-stroke"  transform=" translate(-583.85, -510.4)" d="M 504.6 452.2 L 663.1 568.6" stroke-linecap="round" />
</g>
		<g transform="matrix(1 0 0 1 -95.55 -5.35)"  >
<path style="stroke: rgb(0,0,0); stroke-width: 1; stroke-dasharray: none; stroke-linecap: butt; stroke-dashoffset: 0; stroke-linejoin: miter; stroke-miterlimit: 10; fill: none; fill-rule: nonzero; opacity: 1;" vector-effect="non-scaling-stroke"  transform=" translate(-755.3, -402)" d="M 703.5 353.1 L 807.1 450.90000000000003" stroke-linecap="round" />
</g>
		<g transform="matrix(1 0 0 1 78.9 116.7)"  >
<path style="stroke: rgb(0,0,0); stroke-width: 1; stroke-dasharray: none; stroke-linecap: butt; stroke-dashoffset: 0; stroke-linejoin: miter; stroke-miterlimit: 10; fill: none; fill-rule: nonzero; opacity: 1;" vector-effect="non-scaling-stroke"  transform=" translate(-929.75, -524.05)" d="M 860.5 474 L 999 574.1" stroke-linecap="round" />
</g>
		<g transform="matrix(1 0 0 1 82.95 -18.8)"  >
<path style="stroke: rgb(0,0,0); stroke-width: 1; stroke-dasharray: none; stroke-linecap: butt; stroke-dashoffset: 0; stroke-linejoin: miter; stroke-miterlimit: 10; fill: none; fill-rule: nonzero; opacity: 1;" vector-effect="non-scaling-stroke"  transform=" translate(-933.8, -388.55)" d="M 866.3 448.1 L 1001.3 329" stroke-linecap="round" />
</g>
		<g transform="matrix(1 0 0 1 316.7 -13)"  >
<path style="stroke: rgb(0,0,0); stroke-width: 1; stroke-dasharray: none; stroke-linecap: butt; stroke-dashoffset: 0; stroke-linejoin: miter; stroke-miterlimit: 10; fill: none; fill-rule: nonzero; opacity: 1;" vector-effect="non-scaling-stroke"  transform=" translate(-1167.55, -394.35)" d="M 1110.1 353.1 L 1225 435.6" stroke-linecap="round" />
</g>
		<g transform="matrix(1 0 0 1 269.85 -184.05)"  >
<path style="stroke: rgb(0,0,0); stroke-width: 1; stroke-dasharray: none; stroke-linecap: butt; stroke-dashoffset: 0; stroke-linejoin: miter; stroke-miterlimit: 10; fill: none; fill-rule: nonzero; opacity: 1;" vector-effect="non-scaling-stroke"  transform=" translate(-1120.7, -223.3)" d="M 1088.9 256.1 L 1152.5 190.50000000000003" stroke-linecap="round" />
</g>
		<g transform="matrix(1 0 0 1 377.25 -100.05)"  >
<path style="stroke: rgb(0,0,0); stroke-width: 1; stroke-dasharray: none; stroke-linecap: butt; stroke-dashoffset: 0; stroke-linejoin: miter; stroke-miterlimit: 10; fill: none; fill-rule: nonzero; opacity: 1;" vector-effect="non-scaling-stroke"  transform=" translate(-1228.1, -307.3)" d="M 1270.8 424.1 L 1185.3999999999999 190.50000000000003" stroke-linecap="round" />
</g>
		<g transform="matrix(1 0 0 1 537.8 -48.25)"  >
<path style="stroke: rgb(0,0,0); stroke-width: 1; stroke-dasharray: none; stroke-linecap: butt; stroke-dashoffset: 0; stroke-linejoin: miter; stroke-miterlimit: 10; fill: none; fill-rule: nonzero; opacity: 1;" vector-effect="non-scaling-stroke"  transform=" translate(-1388.65, -359.1)" d="M 1314.8 454.7 L 1462.5 263.5" stroke-linecap="round" />
</g>
		<g transform="matrix(1 0 0 1 561.15 87.15)"  >
<path style="stroke: rgb(0,0,0); stroke-width: 1; stroke-dasharray: none; stroke-linecap: butt; stroke-dashoffset: 0; stroke-linejoin: miter; stroke-miterlimit: 10; fill: none; fill-rule: nonzero; opacity: 1;" vector-effect="non-scaling-stroke"  transform=" translate(-1412, -494.5)" d="M 1312.2 478.6 L 1511.8 510.40000000000003" stroke-linecap="round" />
</g>
		<g transform="matrix(1 0 0 1 277.95 125.55)"  >
<path style="stroke: rgb(0,0,0); stroke-width: 1; stroke-dasharray: none; stroke-linecap: butt; stroke-dashoffset: 0; stroke-linejoin: miter; stroke-miterlimit: 10; fill: none; fill-rule: nonzero; opacity: 1;" vector-effect="non-scaling-stroke"  transform=" translate(-1128.8, -532.9)" d="M 1037.1 574.1 L 1220.5 491.70000000000005" stroke-linecap="round" />
</g>
		<g transform="matrix(1 0 0 1 23.35 186.05)"  >
<path style="stroke: rgb(0,0,0); stroke-width: 1; stroke-dasharray: none; stroke-linecap: butt; stroke-dashoffset: 0; stroke-linejoin: miter; stroke-miterlimit: 10; fill: none; fill-rule: nonzero; opacity: 1;" vector-effect="non-scaling-stroke"  transform=" translate(-874.2, -593.4)" d="M 755.1 588.5 L 993.3 598.3" stroke-linecap="round" />
</g>
		<g transform="matrix(1 0 0 1 -703.4 -83.55)"  >
<path style="stroke: rgb(0,0,0); stroke-width: 1; stroke-dasharray: none; stroke-linecap: butt; stroke-dashoffset: 0; stroke-linejoin: miter; stroke-miterlimit: 10; fill: none; fill-rule: nonzero; opacity: 1;" vector-effect="non-scaling-stroke"  transform=" translate(-147.45, -323.8)" d="M 74.2 318.2 L 220.7 329.4" stroke-linecap="round" />
</g>
		<g transform="matrix(1 0 0 1 508.95 330.5)"  >
<path style="stroke: none; stroke-width: 1; stroke-dasharray: none; stroke-linecap: butt; stroke-dashoffset: 0; stroke-linejoin: miter; stroke-miterlimit: 4; fill: rgb(0,0,0); fill-rule: nonzero; opacity: 1;" vector-effect="non-scaling-stroke"  transform=" translate(-1359.8, -737.85)" d="M 1349.1 743.1 L 1351.6999999999998 743.1 C 1351.6999999999998 747.7 1355.1 750.7 1360.3999999999999 750.7 C 1365.1999999999998 750.7 1367.8999999999999 748.5 1367.8999999999999 744.8000000000001 C 1367.8999999999999 741.3000000000001 1365.8999999999999 739.8000000000001 1359.6999999999998 738.4000000000001 C 1352.7999999999997 736.7 1350.1 734.5000000000001 1350.1 730.4000000000001 C 1350.1 725.7 1353.8 722.7 1359.8 722.7 C 1365.7 722.7 1369.6 726.1 1369.6 731.3000000000001 L 1367.1 731.3000000000001 C 1367 727.4000000000001 1364.3999999999999 725.0000000000001 1359.6999999999998 725.0000000000001 C 1355.2999999999997 725.0000000000001 1352.6 727.1000000000001 1352.6 730.2000000000002 C 1352.6 733.2000000000002 1354.6 734.6000000000001 1360.8 736.2000000000002 C 1367.7 738.0000000000001 1370.5 740.1000000000001 1370.5 744.7000000000002 C 1370.5 749.9000000000002 1366.9 753.0000000000001 1360.3 753.0000000000001 C 1353.5 753 1349.1 749.1 1349.1 743.1 z" stroke-linecap="round" />
</g>
		<g transform="matrix(1 0 0 1 533 334.75)"  >
<path style="stroke: none; stroke-width: 1; stroke-dasharray: none; stroke-linecap: butt; stroke-dashoffset: 0; stroke-linejoin: miter; stroke-miterlimit: 4; fill: rgb(0,0,0); fill-rule: nonzero; opacity: 1;" vector-effect="non-scaling-stroke"  transform=" translate(-1383.85, -742.1)" d="M 1389.9 731.2 L 1392.4 731.2 L 1392.4 752.5 L 1389.9 752.5 L 1389.9 748.2 C 1388.6000000000001 750.7 1385.9 753 1382.2 753 C 1378 753 1375.3 750.7 1375.3 745 L 1375.3 731.2 L 1377.8 731.2 L 1377.8 744.5 C 1377.8 749.3 1379.7 750.9 1382.8 750.9 C 1386.3999999999999 750.9 1389.1 747.9 1389.8 745.1999999999999 L 1389.8 731.2 z" stroke-linecap="round" />
</g>
		<g transform="matrix(1 0 0 1 557.15 338)"  >
<path style="stroke: none; stroke-width: 1; stroke-dasharray: none; stroke-linecap: butt; stroke-dashoffset: 0; stroke-linejoin: miter; stroke-miterlimit: 4; fill: rgb(0,0,0); fill-rule: nonzero; opacity: 1;" vector-effect="non-scaling-stroke"  transform=" translate(-1408, -745.35)" d="M 1417.7 741.9 C 1417.7 748.1 1414.4 753 1408.4 753 C 1404.7 753 1402.2 751.1 1400.8000000000002 748.1 L 1400.8000000000002 759.9 L 1398.3000000000002 759.9 L 1398.3000000000002 731.1999999999999 L 1400.8000000000002 731.1999999999999 L 1400.8000000000002 735.9999999999999 C 1402.2000000000003 732.8999999999999 1404.9 730.7999999999998 1408.4 730.7999999999998 C 1414.4 730.7 1417.7 735.7 1417.7 741.9 z M 1415.1 741.9 C 1415.1 736.9 1412.6999999999998 732.8 1407.8999999999999 732.8 C 1403.3 732.8 1400.6999999999998 737.0999999999999 1400.6999999999998 741.9 C 1400.6999999999998 746.9 1403.1 751 1407.8999999999999 751 C 1412.7 750.9 1415.1 746.8 1415.1 741.9 z" stroke-linecap="round" />
</g>
		<g transform="matrix(1 0 0 1 581.05 338)"  >
<path style="stroke: none; stroke-width: 1; stroke-dasharray: none; stroke-linecap: butt; stroke-dashoffset: 0; stroke-linejoin: miter; stroke-miterlimit: 4; fill: rgb(0,0,0); fill-rule: nonzero; opacity: 1;" vector-effect="non-scaling-stroke"  transform=" translate(-1431.9, -745.35)" d="M 1441.6 741.9 C 1441.6 748.1 1438.3 753 1432.3 753 C 1428.6 753 1426.1 751.1 1424.7 748.1 L 1424.7 759.9 L 1422.2 759.9 L 1422.2 731.1999999999999 L 1424.7 731.1999999999999 L 1424.7 735.9999999999999 C 1426.1000000000001 732.8999999999999 1428.8 730.7999999999998 1432.3 730.7999999999998 C 1438.2 730.7 1441.6 735.7 1441.6 741.9 z M 1439 741.9 C 1439 736.9 1436.6 732.8 1431.8 732.8 C 1427.2 732.8 1424.6 737.0999999999999 1424.6 741.9 C 1424.6 746.9 1427 751 1431.8 751 C 1436.6 750.9 1439 746.8 1439 741.9 z" stroke-linecap="round" />
</g>
		<g transform="matrix(1 0 0 1 596.7 329.55)"  >
<path style="stroke: none; stroke-width: 1; stroke-dasharray: none; stroke-linecap: butt; stroke-dashoffset: 0; stroke-linejoin: miter; stroke-miterlimit: 4; fill: rgb(0,0,0); fill-rule: nonzero; opacity: 1;" vector-effect="non-scaling-stroke"  transform=" translate(-1447.55, -736.9)" d="M 1446.3 752.5 L 1446.3 721.3 L 1448.8 721.3 L 1448.8 752.5 L 1446.3 752.5 z" stroke-linecap="round" />
</g>
		<g transform="matrix(1 0 0 1 612.1 338.2)"  >
<path style="stroke: none; stroke-width: 1; stroke-dasharray: none; stroke-linecap: butt; stroke-dashoffset: 0; stroke-linejoin: miter; stroke-miterlimit: 4; fill: rgb(0,0,0); fill-rule: nonzero; opacity: 1;" vector-effect="non-scaling-stroke"  transform=" translate(-1462.95, -745.55)" d="M 1470.3 731.2 L 1472.8999999999999 731.2 L 1460.6999999999998 759.9000000000001 L 1457.9999999999998 759.9000000000001 L 1461.8999999999999 751.1000000000001 L 1452.9999999999998 731.2000000000002 L 1455.5999999999997 731.2000000000002 L 1463.1999999999996 748.4000000000002 L 1470.3 731.2 z" stroke-linecap="round" />
</g>
		<g transform="matrix(1 0 0 1 647.3 330.5)"  >
<path style="stroke: none; stroke-width: 1; stroke-dasharray: none; stroke-linecap: butt; stroke-dashoffset: 0; stroke-linejoin: miter; stroke-miterlimit: 4; fill: rgb(0,0,0); fill-rule: nonzero; opacity: 1;" vector-effect="non-scaling-stroke"  transform=" translate(-1498.15, -737.85)" d="M 1505.9 752.5 L 1494.1000000000001 738.1 L 1490.0000000000002 742.3000000000001 L 1490.0000000000002 752.5000000000001 L 1487.4000000000003 752.5000000000001 L 1487.4000000000003 723.2000000000002 L 1490.0000000000002 723.2000000000002 L 1490.0000000000002 739 L 1505.0000000000002 723.2 L 1508.3000000000002 723.2 L 1495.7000000000003 736.3000000000001 L 1508.9000000000003 752.5000000000001 L 1505.9 752.5000000000001 z" stroke-linecap="round" />
</g>
		<g transform="matrix(1 0 0 1 670.85 334.25)"  >
<path style="stroke: none; stroke-width: 1; stroke-dasharray: none; stroke-linecap: butt; stroke-dashoffset: 0; stroke-linejoin: miter; stroke-miterlimit: 4; fill: rgb(0,0,0); fill-rule: nonzero; opacity: 1;" vector-effect="non-scaling-stroke"  transform=" translate(-1521.7, -741.6)" d="M 1530.2 738.7 L 1530.2 752.5 L 1527.7 752.5 L 1527.7 739.2 C 1527.7 734.4000000000001 1525.9 732.8000000000001 1522.7 732.8000000000001 C 1519.1000000000001 732.8000000000001 1516.4 735.8000000000001 1515.7 738.5000000000001 L 1515.7 752.5000000000001 L 1513.2 752.5000000000001 L 1513.2 731.2000000000002 L 1515.7 731.2000000000002 L 1515.7 735.5000000000001 C 1517 733.0000000000001 1519.7 730.7000000000002 1523.4 730.7000000000002 C 1527.5 730.7 1530.2 733 1530.2 738.7 z" stroke-linecap="round" />
</g>
		<g transform="matrix(1 0 0 1 693.45 334.55)"  >
<path style="stroke: none; stroke-width: 1; stroke-dasharray: none; stroke-linecap: butt; stroke-dashoffset: 0; stroke-linejoin: miter; stroke-miterlimit: 4; fill: rgb(0,0,0); fill-rule: nonzero; opacity: 1;" vector-effect="non-scaling-stroke"  transform=" translate(-1544.3, -741.9)" d="M 1534.3 741.9 C 1534.3 735.5 1538 730.8 1544.3 730.8 C 1550.6 730.8 1554.3 735.5 1554.3 741.9 C 1554.3 748.3 1550.3999999999999 753 1544.3 753 C 1538 753 1534.3 748.3 1534.3 741.9 z M 1551.6 741.9 C 1551.6 736.6999999999999 1549.1999999999998 732.8 1544.1999999999998 732.8 C 1539.1999999999998 732.8 1536.7999999999997 736.6999999999999 1536.7999999999997 741.9 C 1536.7999999999997 747.1 1539.1999999999998 751 1544.1999999999998 751 C 1549.1999999999998 751 1551.6 747.1 1551.6 741.9 z" stroke-linecap="round" />
</g>
		<g transform="matrix(1 0 0 1 720.45 334.5)"  >
<path style="stroke: none; stroke-width: 1; stroke-dasharray: none; stroke-linecap: butt; stroke-dashoffset: 0; stroke-linejoin: miter; stroke-miterlimit: 4; fill: rgb(0,0,0); fill-rule: nonzero; opacity: 1;" vector-effect="non-scaling-stroke"  transform=" translate(-1571.3, -741.85)" d="M 1583.6 731.2 L 1586.1999999999998 731.2 L 1580.1 752.5 L 1576.6999999999998 752.5 L 1571.2999999999997 733.3 L 1565.8999999999996 752.5 L 1562.4999999999995 752.5 L 1556.3999999999996 731.2 L 1558.9999999999995 731.2 L 1564.3999999999996 750.7 L 1569.7999999999997 731.2 L 1572.8999999999996 731.2 L 1578.2999999999997 750.7 L 1583.6 731.2 z" stroke-linecap="round" />
</g>
		<g transform="matrix(1 0 0 1 740.8 329.55)"  >
<path style="stroke: none; stroke-width: 1; stroke-dasharray: none; stroke-linecap: butt; stroke-dashoffset: 0; stroke-linejoin: miter; stroke-miterlimit: 4; fill: rgb(0,0,0); fill-rule: nonzero; opacity: 1;" vector-effect="non-scaling-stroke"  transform=" translate(-1591.65, -736.9)" d="M 1590.4 752.5 L 1590.4 721.3 L 1592.9 721.3 L 1592.9 752.5 L 1590.4 752.5 z" stroke-linecap="round" />
</g>
		<g transform="matrix(1 0 0 1 756.2 334.55)"  >
<path style="stroke: none; stroke-width: 1; stroke-dasharray: none; stroke-linecap: butt; stroke-dashoffset: 0; stroke-linejoin: miter; stroke-miterlimit: 4; fill: rgb(0,0,0); fill-rule: nonzero; opacity: 1;" vector-effect="non-scaling-stroke"  transform=" translate(-1607.05, -741.9)" d="M 1616.5 742.3 L 1600.2 742.3 C 1600.3 747.0999999999999 1602.7 750.9 1607.9 750.9 C 1611.9 750.9 1613.4 748.8 1614 746 L 1616.5 746 C 1615.8 749.6 1613.3 753 1607.7 753 C 1601.1000000000001 753 1597.6000000000001 748.1 1597.6000000000001 741.9 C 1597.6000000000001 735.6999999999999 1601.2 730.8 1607.4 730.8 C 1613.6000000000001 730.8 1616.5 735.5999999999999 1616.5 741.0999999999999 L 1616.5 742.3 z M 1600.3 740.3 L 1614.1 740.3 C 1613.8999999999999 736.0999999999999 1612 732.8 1607.5 732.8 C 1603 732.8 1600.7 736 1600.3 740.3 z" stroke-linecap="round" />
</g>
		<g transform="matrix(1 0 0 1 778.55 329.85)"  >
<path style="stroke: none; stroke-width: 1; stroke-dasharray: none; stroke-linecap: butt; stroke-dashoffset: 0; stroke-linejoin: miter; stroke-miterlimit: 4; fill: rgb(0,0,0); fill-rule: nonzero; opacity: 1;" vector-effect="non-scaling-stroke"  transform=" translate(-1629.4, -737.2)" d="M 1636.6 721.4 L 1639.1 721.4 L 1639.1 752.6 L 1636.6 752.6 L 1636.6 747.8000000000001 C 1635.1999999999998 750.9000000000001 1632.5 753.0000000000001 1629 753.0000000000001 C 1623 753.0000000000001 1619.7 748.1000000000001 1619.7 741.9000000000001 C 1619.7 735.7 1623 730.8000000000001 1629 730.8000000000001 C 1632.7 730.8000000000001 1635.2 732.7 1636.6 735.7 L 1636.6 721.4 z M 1636.6 741.9 C 1636.6 736.9 1634.3 732.8 1629.3999999999999 732.8 C 1624.4999999999998 732.8 1622.1999999999998 736.9 1622.1999999999998 741.9 C 1622.1999999999998 746.9 1624.6 751 1629.3999999999999 751 C 1634 750.9 1636.6 746.6 1636.6 741.9 z" stroke-linecap="round" />
</g>
		<g transform="matrix(1 0 0 1 802.8 338.2)"  >
<path style="stroke: none; stroke-width: 1; stroke-dasharray: none; stroke-linecap: butt; stroke-dashoffset: 0; stroke-linejoin: miter; stroke-miterlimit: 4; fill: rgb(0,0,0); fill-rule: nonzero; opacity: 1;" vector-effect="non-scaling-stroke"  transform=" translate(-1653.65, -745.55)" d="M 1660.9 731.2 L 1663.4 731.2 L 1663.4 749.3000000000001 C 1663.4 756.6 1660.2 760.3000000000001 1653.4 760.3000000000001 C 1646.9 760.3000000000001 1644.6000000000001 757.0000000000001 1643.9 754.2 L 1646.4 754.2 C 1647.1000000000001 756.2 1648.9 758.3000000000001 1653.4 758.3000000000001 C 1658.7 758.3000000000001 1660.9 755.6 1660.9 749.5000000000001 L 1660.9 747 C 1659.5 750 1656.8000000000002 752 1653.2 752 C 1647.3 752 1643.9 747.5 1643.9 741.6 C 1643.9 735.7 1647.5 730.8000000000001 1653.2 730.8000000000001 C 1657 730.8000000000001 1659.5 732.8000000000001 1660.9 735.8000000000001 L 1660.9 731.2 z M 1660.9 741.5 C 1660.9 736.8 1658.5 732.8 1653.7 732.8 C 1649 732.8 1646.5 736.9 1646.5 741.5 C 1646.5 746.2 1649 749.9 1653.7 749.9 C 1658.1 749.9 1660.9 746.1 1660.9 741.5 z" stroke-linecap="round" />
</g>
		<g transform="matrix(1 0 0 1 826.4 334.55)"  >
<path style="stroke: none; stroke-width: 1; stroke-dasharray: none; stroke-linecap: butt; stroke-dashoffset: 0; stroke-linejoin: miter; stroke-miterlimit: 4; fill: rgb(0,0,0); fill-rule: nonzero; opacity: 1;" vector-effect="non-scaling-stroke"  transform=" translate(-1677.25, -741.9)" d="M 1686.6 742.3 L 1670.3 742.3 C 1670.3999999999999 747.0999999999999 1672.8 750.9 1678 750.9 C 1682 750.9 1683.5 748.8 1684.2 746 L 1686.7 746 C 1686 749.6 1683.5 753 1677.9 753 C 1671.3000000000002 753 1667.8000000000002 748.1 1667.8000000000002 741.9 C 1667.8000000000002 735.6999999999999 1671.4 730.8 1677.6000000000001 730.8 C 1683.8000000000002 730.8 1686.7 735.5999999999999 1686.7 741.0999999999999 L 1686.7 742.3 z M 1670.4 740.3 L 1684.2 740.3 C 1684 736.0999999999999 1682.1000000000001 732.8 1677.6000000000001 732.8 C 1673.1 732.8 1670.8 736 1670.4 740.3 z" stroke-linecap="round" />
</g>
</g>
</g>
</svg>